<svg width="41" height="11" viewBox="0 0 41 11" fill="none" xmlns="http://www.w3.org/2000/svg">
<path d="M4.486 6.136L5.788 2.468H5.816L7.076 6.136H4.486ZM4.696 0.00399935L0.916 10H3.128L3.912 7.774H7.65L8.406 10H10.688L6.95 0.00399935H4.696ZM16.646 6.388C16.646 6.68667 16.6133 6.976 16.548 7.256C16.4827 7.536 16.38 7.78333 16.24 7.998C16.1 8.21267 15.9227 8.38533 15.708 8.516C15.5027 8.63733 15.2507 8.698 14.952 8.698C14.6627 8.698 14.4107 8.63733 14.196 8.516C13.9813 8.38533 13.804 8.21267 13.664 7.998C13.524 7.78333 13.4213 7.536 13.356 7.256C13.2907 6.976 13.258 6.68667 13.258 6.388C13.258 6.08 13.2907 5.786 13.356 5.506C13.4213 5.226 13.524 4.97867 13.664 4.764C13.804 4.54933 13.9813 4.38133 14.196 4.26C14.4107 4.12933 14.6627 4.064 14.952 4.064C15.2507 4.064 15.5027 4.12933 15.708 4.26C15.9227 4.38133 16.1 4.54933 16.24 4.764C16.38 4.97867 16.4827 5.226 16.548 5.506C16.6133 5.786 16.646 6.08 16.646 6.388ZM11.34 0.00399935V10H13.23V9.076H13.258C13.4727 9.47733 13.79 9.762 14.21 9.93C14.63 10.098 15.106 10.182 15.638 10.182C16.002 10.182 16.3613 10.1073 16.716 9.958C17.0707 9.80867 17.388 9.58 17.668 9.272C17.9573 8.964 18.1907 8.572 18.368 8.096C18.5453 7.61067 18.634 7.03667 18.634 6.374C18.634 5.71133 18.5453 5.142 18.368 4.666C18.1907 4.18067 17.9573 3.784 17.668 3.476C17.388 3.168 17.0707 2.93933 16.716 2.79C16.3613 2.64067 16.002 2.566 15.638 2.566C15.19 2.566 14.756 2.65467 14.336 2.832C13.9253 3 13.5987 3.27067 13.356 3.644H13.328V0.00399935H11.34ZM21.6626 6.388C21.6626 6.09867 21.6906 5.814 21.7466 5.534C21.8026 5.254 21.8959 5.00667 22.0266 4.792C22.1666 4.57733 22.3486 4.40467 22.5726 4.274C22.7966 4.134 23.0766 4.064 23.4126 4.064C23.7486 4.064 24.0286 4.134 24.2526 4.274C24.4859 4.40467 24.6679 4.57733 24.7986 4.792C24.9386 5.00667 25.0366 5.254 25.0926 5.534C25.1486 5.814 25.1766 6.09867 25.1766 6.388C25.1766 6.67733 25.1486 6.962 25.0926 7.242C25.0366 7.51267 24.9386 7.76 24.7986 7.984C24.6679 8.19867 24.4859 8.37133 24.2526 8.502C24.0286 8.63267 23.7486 8.698 23.4126 8.698C23.0766 8.698 22.7966 8.63267 22.5726 8.502C22.3486 8.37133 22.1666 8.19867 22.0266 7.984C21.8959 7.76 21.8026 7.51267 21.7466 7.242C21.6906 6.962 21.6626 6.67733 21.6626 6.388ZM19.6746 6.388C19.6746 6.96667 19.7632 7.48933 19.9406 7.956C20.1179 8.42267 20.3699 8.824 20.6966 9.16C21.0232 9.48667 21.4152 9.73867 21.8726 9.916C22.3299 10.0933 22.8432 10.182 23.4126 10.182C23.9819 10.182 24.4952 10.0933 24.9526 9.916C25.4192 9.73867 25.8159 9.48667 26.1426 9.16C26.4692 8.824 26.7212 8.42267 26.8986 7.956C27.0759 7.48933 27.1646 6.96667 27.1646 6.388C27.1646 5.80933 27.0759 5.28667 26.8986 4.82C26.7212 4.344 26.4692 3.94267 26.1426 3.616C25.8159 3.28 25.4192 3.02333 24.9526 2.846C24.4952 2.65933 23.9819 2.566 23.4126 2.566C22.8432 2.566 22.3299 2.65933 21.8726 2.846C21.4152 3.02333 21.0232 3.28 20.6966 3.616C20.3699 3.94267 20.1179 4.344 19.9406 4.82C19.7632 5.28667 19.6746 5.80933 19.6746 6.388ZM35.2472 10V2.762H33.2592V6.556C33.2592 7.29333 33.1378 7.82533 32.8952 8.152C32.6525 8.46933 32.2605 8.628 31.7192 8.628C31.2432 8.628 30.9118 8.48333 30.7252 8.194C30.5385 7.89533 30.4452 7.44733 30.4452 6.85V2.762H28.4572V7.214C28.4572 7.662 28.4945 8.07267 28.5692 8.446C28.6532 8.81 28.7932 9.12267 28.9892 9.384C29.1852 9.636 29.4512 9.832 29.7872 9.972C30.1325 10.112 30.5712 10.182 31.1032 10.182C31.5232 10.182 31.9338 10.0887 32.3352 9.902C32.7365 9.71533 33.0632 9.412 33.3152 8.992H33.3572V10H35.2472ZM39.276 2.762V0.591999H37.288V2.762H36.084V4.092H37.288V8.362C37.288 8.726 37.3487 9.02 37.47 9.244C37.5913 9.468 37.7547 9.64067 37.96 9.762C38.1747 9.88333 38.4173 9.96267 38.688 10C38.968 10.0467 39.262 10.07 39.57 10.07C39.766 10.07 39.9667 10.0653 40.172 10.056C40.3773 10.0467 40.564 10.028 40.732 10V8.46C40.6387 8.47867 40.5407 8.49267 40.438 8.502C40.3353 8.51133 40.228 8.516 40.116 8.516C39.78 8.516 39.556 8.46 39.444 8.348C39.332 8.236 39.276 8.012 39.276 7.676V4.092H40.732V2.762H39.276Z" fill="#707070"/>
</svg>
