<svg width="27" height="11" viewBox="0 0 27 11" fill="none" xmlns="http://www.w3.org/2000/svg">
<path d="M4.486 6.136L5.788 2.468H5.816L7.076 6.136H4.486ZM4.696 0.00399935L0.916 10H3.128L3.912 7.774H7.65L8.406 10H10.688L6.95 0.00399935H4.696ZM16.478 6.36C16.478 6.65867 16.45 6.948 16.394 7.228C16.338 7.508 16.2447 7.76 16.114 7.984C15.9833 8.19867 15.806 8.37133 15.582 8.502C15.3673 8.63267 15.0967 8.698 14.77 8.698C14.462 8.698 14.196 8.63267 13.972 8.502C13.7573 8.362 13.5753 8.18467 13.426 7.97C13.286 7.746 13.1833 7.494 13.118 7.214C13.0527 6.934 13.02 6.654 13.02 6.374C13.02 6.07533 13.048 5.79067 13.104 5.52C13.1693 5.24 13.2673 4.99267 13.398 4.778C13.538 4.56333 13.72 4.39067 13.944 4.26C14.168 4.12933 14.4433 4.064 14.77 4.064C15.0967 4.064 15.3673 4.12933 15.582 4.26C15.7967 4.39067 15.9693 4.56333 16.1 4.778C16.24 4.98333 16.338 5.226 16.394 5.506C16.45 5.77667 16.478 6.06133 16.478 6.36ZM16.506 9.076V10H18.396V0.00399935H16.408V3.644H16.38C16.156 3.28933 15.848 3.02333 15.456 2.846C15.0733 2.65933 14.6673 2.566 14.238 2.566C13.706 2.566 13.2393 2.67333 12.838 2.888C12.4367 3.09333 12.1007 3.36867 11.83 3.714C11.5687 4.05933 11.368 4.46067 11.228 4.918C11.0973 5.366 11.032 5.83267 11.032 6.318C11.032 6.822 11.0973 7.30733 11.228 7.774C11.368 8.24067 11.5687 8.656 11.83 9.02C12.1007 9.37467 12.4413 9.65933 12.852 9.874C13.2627 10.0793 13.7387 10.182 14.28 10.182C14.756 10.182 15.1807 10.098 15.554 9.93C15.9367 9.75267 16.2447 9.468 16.478 9.076H16.506ZM21.4386 7.648H19.5486C19.5672 8.13333 19.6746 8.53933 19.8706 8.866C20.0759 9.18333 20.3326 9.44 20.6406 9.636C20.9579 9.832 21.3172 9.972 21.7186 10.056C22.1199 10.14 22.5306 10.182 22.9506 10.182C23.3612 10.182 23.7626 10.14 24.1546 10.056C24.5559 9.98133 24.9106 9.846 25.2186 9.65C25.5266 9.454 25.7739 9.19733 25.9606 8.88C26.1566 8.55333 26.2546 8.152 26.2546 7.676C26.2546 7.34 26.1892 7.06 26.0586 6.836C25.9279 6.60267 25.7552 6.41133 25.5406 6.262C25.3259 6.10333 25.0786 5.97733 24.7986 5.884C24.5279 5.79067 24.2479 5.71133 23.9586 5.646C23.6786 5.58067 23.4032 5.52 23.1326 5.464C22.8619 5.408 22.6192 5.34733 22.4046 5.282C22.1992 5.20733 22.0312 5.114 21.9006 5.002C21.7699 4.89 21.7046 4.74533 21.7046 4.568C21.7046 4.41867 21.7419 4.302 21.8166 4.218C21.8912 4.12467 21.9799 4.05467 22.0826 4.008C22.1946 3.96133 22.3159 3.93333 22.4466 3.924C22.5772 3.90533 22.6986 3.896 22.8106 3.896C23.1652 3.896 23.4732 3.966 23.7346 4.106C23.9959 4.23667 24.1406 4.49333 24.1686 4.876H26.0586C26.0212 4.428 25.9046 4.05933 25.7086 3.77C25.5219 3.47133 25.2839 3.23333 24.9946 3.056C24.7052 2.87867 24.3739 2.75267 24.0006 2.678C23.6366 2.60333 23.2586 2.566 22.8666 2.566C22.4746 2.566 22.0919 2.60333 21.7186 2.678C21.3452 2.74333 21.0092 2.86467 20.7106 3.042C20.4119 3.21 20.1692 3.44333 19.9826 3.742C19.8052 4.04067 19.7166 4.42333 19.7166 4.89C19.7166 5.20733 19.7819 5.478 19.9126 5.702C20.0432 5.91667 20.2159 6.09867 20.4306 6.248C20.6452 6.388 20.8879 6.50467 21.1586 6.598C21.4386 6.682 21.7232 6.75667 22.0126 6.822C22.7219 6.97133 23.2726 7.12067 23.6646 7.27C24.0659 7.41933 24.2666 7.64333 24.2666 7.942C24.2666 8.11933 24.2246 8.26867 24.1406 8.39C24.0566 8.502 23.9492 8.59533 23.8186 8.67C23.6972 8.73533 23.5572 8.78667 23.3986 8.824C23.2492 8.852 23.1046 8.866 22.9646 8.866C22.7686 8.866 22.5772 8.84267 22.3906 8.796C22.2132 8.74933 22.0546 8.67933 21.9146 8.586C21.7746 8.48333 21.6579 8.35733 21.5646 8.208C21.4806 8.04933 21.4386 7.86267 21.4386 7.648Z" fill="#707070"/>
</svg>
