<svg width="87" height="13" viewBox="0 0 87 13" fill="none" xmlns="http://www.w3.org/2000/svg">
<path d="M2.616 9.888V2.688H4.408C5.02667 2.688 5.544 2.77867 5.96 2.96C6.38667 3.13067 6.728 3.38133 6.984 3.712C7.24 4.04267 7.42133 4.44267 7.528 4.912C7.64533 5.37067 7.704 5.888 7.704 6.464C7.704 7.09333 7.624 7.62667 7.464 8.064C7.304 8.50133 7.09067 8.85867 6.824 9.136C6.55733 9.40267 6.25333 9.59467 5.912 9.712C5.57067 9.82933 5.21867 9.888 4.856 9.888H2.616ZM0.104 0.575999V12H5.032C5.90667 12 6.664 11.856 7.304 11.568C7.95467 11.2693 8.49333 10.864 8.92 10.352C9.35733 9.84 9.68267 9.232 9.896 8.528C10.1093 7.824 10.216 7.056 10.216 6.224C10.216 5.27467 10.0827 4.448 9.816 3.744C9.56 3.04 9.19733 2.45333 8.728 1.984C8.26933 1.51467 7.72 1.16267 7.08 0.927999C6.45067 0.693333 5.768 0.575999 5.032 0.575999H0.104ZM13.7394 7.872C13.7394 7.54133 13.7714 7.216 13.8354 6.896C13.8994 6.576 14.006 6.29333 14.1554 6.048C14.3154 5.80267 14.5234 5.60533 14.7794 5.456C15.0354 5.296 15.3554 5.216 15.7394 5.216C16.1234 5.216 16.4434 5.296 16.6994 5.456C16.966 5.60533 17.174 5.80267 17.3234 6.048C17.4834 6.29333 17.5954 6.576 17.6594 6.896C17.7234 7.216 17.7554 7.54133 17.7554 7.872C17.7554 8.20267 17.7234 8.528 17.6594 8.848C17.5954 9.15733 17.4834 9.44 17.3234 9.696C17.174 9.94133 16.966 10.1387 16.6994 10.288C16.4434 10.4373 16.1234 10.512 15.7394 10.512C15.3554 10.512 15.0354 10.4373 14.7794 10.288C14.5234 10.1387 14.3154 9.94133 14.1554 9.696C14.006 9.44 13.8994 9.15733 13.8354 8.848C13.7714 8.528 13.7394 8.20267 13.7394 7.872ZM11.4674 7.872C11.4674 8.53333 11.5687 9.13067 11.7714 9.664C11.974 10.1973 12.262 10.656 12.6354 11.04C13.0087 11.4133 13.4567 11.7013 13.9794 11.904C14.502 12.1067 15.0887 12.208 15.7394 12.208C16.39 12.208 16.9767 12.1067 17.4994 11.904C18.0327 11.7013 18.486 11.4133 18.8594 11.04C19.2327 10.656 19.5207 10.1973 19.7234 9.664C19.926 9.13067 20.0274 8.53333 20.0274 7.872C20.0274 7.21067 19.926 6.61333 19.7234 6.08C19.5207 5.536 19.2327 5.07733 18.8594 4.704C18.486 4.32 18.0327 4.02667 17.4994 3.824C16.9767 3.61067 16.39 3.504 15.7394 3.504C15.0887 3.504 14.502 3.61067 13.9794 3.824C13.4567 4.02667 13.0087 4.32 12.6354 4.704C12.262 5.07733 11.974 5.536 11.7714 6.08C11.5687 6.61333 11.4674 7.21067 11.4674 7.872ZM27.1366 6.64H29.3606C29.3286 6.10667 29.2006 5.648 28.9766 5.264C28.7526 4.86933 28.4593 4.544 28.0966 4.288C27.7446 4.02133 27.3393 3.824 26.8806 3.696C26.4326 3.568 25.9633 3.504 25.4726 3.504C24.8006 3.504 24.2033 3.616 23.6806 3.84C23.158 4.064 22.7153 4.37867 22.3526 4.784C21.99 5.17867 21.7126 5.65333 21.5206 6.208C21.3393 6.752 21.2486 7.344 21.2486 7.984C21.2486 8.60267 21.35 9.17333 21.5526 9.696C21.7553 10.208 22.038 10.6507 22.4006 11.024C22.7633 11.3973 23.2006 11.6907 23.7126 11.904C24.2353 12.1067 24.806 12.208 25.4246 12.208C26.5233 12.208 27.4246 11.92 28.1286 11.344C28.8326 10.768 29.2593 9.93067 29.4086 8.832H27.2166C27.142 9.344 26.9553 9.75467 26.6566 10.064C26.3686 10.3627 25.9526 10.512 25.4086 10.512C25.0566 10.512 24.758 10.432 24.5126 10.272C24.2673 10.112 24.07 9.90933 23.9206 9.664C23.782 9.408 23.6806 9.12533 23.6166 8.816C23.5526 8.50667 23.5206 8.20267 23.5206 7.904C23.5206 7.59467 23.5526 7.28533 23.6166 6.976C23.6806 6.656 23.7873 6.368 23.9366 6.112C24.0966 5.84533 24.2993 5.632 24.5446 5.472C24.79 5.30133 25.094 5.216 25.4566 5.216C26.4273 5.216 26.9873 5.69067 27.1366 6.64ZM38.4521 12V3.728H36.1801V8.064C36.1801 8.90667 36.0415 9.51467 35.7641 9.888C35.4868 10.2507 35.0388 10.432 34.4201 10.432C33.8761 10.432 33.4975 10.2667 33.2841 9.936C33.0708 9.59467 32.9641 9.08267 32.9641 8.4V3.728H30.6921V8.816C30.6921 9.328 30.7348 9.79733 30.8201 10.224C30.9161 10.64 31.0761 10.9973 31.3001 11.296C31.5241 11.584 31.8281 11.808 32.2121 11.968C32.6068 12.128 33.1081 12.208 33.7161 12.208C34.1961 12.208 34.6655 12.1013 35.1241 11.888C35.5828 11.6747 35.9561 11.328 36.2441 10.848H36.2921V12H38.4521ZM40.2405 3.728V12H42.5125V7.2C42.5125 6.79467 42.5712 6.46933 42.6885 6.224C42.8058 5.968 42.9445 5.776 43.1045 5.648C43.2752 5.50933 43.4458 5.41867 43.6165 5.376C43.7978 5.32267 43.9418 5.296 44.0485 5.296C44.4112 5.296 44.6832 5.36 44.8645 5.488C45.0565 5.60533 45.1898 5.76533 45.2645 5.968C45.3498 6.17067 45.3978 6.39467 45.4085 6.64C45.4192 6.87467 45.4245 7.11467 45.4245 7.36V12H47.6965V7.392C47.6965 7.136 47.7125 6.88533 47.7445 6.64C47.7872 6.384 47.8618 6.16 47.9685 5.968C48.0858 5.76533 48.2405 5.60533 48.4325 5.488C48.6352 5.36 48.8965 5.296 49.2165 5.296C49.5365 5.296 49.7872 5.34933 49.9685 5.456C50.1605 5.56267 50.3045 5.70667 50.4005 5.888C50.4965 6.06933 50.5552 6.28267 50.5765 6.528C50.5978 6.77333 50.6085 7.03467 50.6085 7.312V12H52.8805V6.464C52.8805 5.93067 52.8058 5.47733 52.6565 5.104C52.5072 4.72 52.2992 4.41067 52.0325 4.176C51.7658 3.94133 51.4458 3.77067 51.0725 3.664C50.6992 3.55733 50.2938 3.504 49.8565 3.504C49.2805 3.504 48.7792 3.64267 48.3525 3.92C47.9365 4.19733 47.6058 4.51733 47.3605 4.88C47.1365 4.368 46.8058 4.01067 46.3685 3.808C45.9418 3.60533 45.4672 3.504 44.9445 3.504C44.4005 3.504 43.9152 3.62133 43.4885 3.856C43.0725 4.09067 42.7152 4.42133 42.4165 4.848H42.3845V3.728H40.2405ZM60.2445 6.976H56.5485C56.5592 6.816 56.5912 6.63467 56.6445 6.432C56.7085 6.22933 56.8098 6.03733 56.9485 5.856C57.0978 5.67467 57.2898 5.52533 57.5245 5.408C57.7698 5.28 58.0738 5.216 58.4365 5.216C58.9912 5.216 59.4018 5.36533 59.6685 5.664C59.9458 5.96267 60.1378 6.4 60.2445 6.976ZM56.5485 8.416H62.5165C62.5592 7.776 62.5058 7.16267 62.3565 6.576C62.2072 5.98933 61.9618 5.46667 61.6205 5.008C61.2898 4.54933 60.8632 4.18667 60.3405 3.92C59.8178 3.64267 59.2045 3.504 58.5005 3.504C57.8712 3.504 57.2952 3.616 56.7725 3.84C56.2605 4.064 55.8178 4.37333 55.4445 4.768C55.0712 5.152 54.7832 5.61067 54.5805 6.144C54.3778 6.67733 54.2765 7.25333 54.2765 7.872C54.2765 8.512 54.3725 9.09867 54.5645 9.632C54.7672 10.1653 55.0498 10.624 55.4125 11.008C55.7752 11.392 56.2178 11.6907 56.7405 11.904C57.2632 12.1067 57.8498 12.208 58.5005 12.208C59.4392 12.208 60.2392 11.9947 60.9005 11.568C61.5618 11.1413 62.0525 10.432 62.3725 9.44H60.3725C60.2978 9.696 60.0952 9.94133 59.7645 10.176C59.4338 10.4 59.0392 10.512 58.5805 10.512C57.9405 10.512 57.4498 10.3467 57.1085 10.016C56.7672 9.68533 56.5805 9.152 56.5485 8.416ZM63.864 3.728V12H66.136V7.664C66.136 6.82133 66.2747 6.21867 66.552 5.856C66.8293 5.48267 67.2773 5.296 67.896 5.296C68.44 5.296 68.8187 5.46667 69.032 5.808C69.2453 6.13867 69.352 6.64533 69.352 7.328V12H71.624V6.912C71.624 6.4 71.576 5.936 71.48 5.52C71.3947 5.09333 71.24 4.736 71.016 4.448C70.792 4.14933 70.4827 3.92 70.088 3.76C69.704 3.58933 69.208 3.504 68.6 3.504C68.12 3.504 67.6507 3.616 67.192 3.84C66.7333 4.05333 66.36 4.4 66.072 4.88H66.024V3.728H63.864ZM76.2284 3.728V1.248H73.9564V3.728H72.5804V5.248H73.9564V10.128C73.9564 10.544 74.0257 10.88 74.1644 11.136C74.303 11.392 74.4897 11.5893 74.7244 11.728C74.9697 11.8667 75.247 11.9573 75.5564 12C75.8764 12.0533 76.2124 12.08 76.5644 12.08C76.7884 12.08 77.0177 12.0747 77.2524 12.064C77.487 12.0533 77.7004 12.032 77.8924 12V10.24C77.7857 10.2613 77.6737 10.2773 77.5564 10.288C77.439 10.2987 77.3164 10.304 77.1884 10.304C76.8044 10.304 76.5484 10.24 76.4204 10.112C76.2924 9.984 76.2284 9.728 76.2284 9.344V5.248H77.8924V3.728H76.2284ZM80.7334 9.312H78.5734C78.5947 9.86667 78.7174 10.3307 78.9414 10.704C79.176 11.0667 79.4694 11.36 79.8214 11.584C80.184 11.808 80.5947 11.968 81.0534 12.064C81.512 12.16 81.9814 12.208 82.4614 12.208C82.9307 12.208 83.3894 12.16 83.8374 12.064C84.296 11.9787 84.7014 11.824 85.0534 11.6C85.4054 11.376 85.688 11.0827 85.9014 10.72C86.1254 10.3467 86.2374 9.888 86.2374 9.344C86.2374 8.96 86.1627 8.64 86.0134 8.384C85.864 8.11733 85.6667 7.89867 85.4214 7.728C85.176 7.54667 84.8934 7.40267 84.5734 7.296C84.264 7.18933 83.944 7.09867 83.6134 7.024C83.2934 6.94933 82.9787 6.88 82.6694 6.816C82.36 6.752 82.0827 6.68267 81.8374 6.608C81.6027 6.52267 81.4107 6.416 81.2614 6.288C81.112 6.16 81.0374 5.99467 81.0374 5.792C81.0374 5.62133 81.08 5.488 81.1654 5.392C81.2507 5.28533 81.352 5.20533 81.4694 5.152C81.5974 5.09867 81.736 5.06667 81.8854 5.056C82.0347 5.03467 82.1734 5.024 82.3014 5.024C82.7067 5.024 83.0587 5.104 83.3574 5.264C83.656 5.41333 83.8214 5.70667 83.8534 6.144H86.0134C85.9707 5.632 85.8374 5.21067 85.6134 4.88C85.4 4.53867 85.128 4.26667 84.7974 4.064C84.4667 3.86133 84.088 3.71733 83.6614 3.632C83.2454 3.54667 82.8134 3.504 82.3654 3.504C81.9174 3.504 81.48 3.54667 81.0534 3.632C80.6267 3.70667 80.2427 3.84533 79.9014 4.048C79.56 4.24 79.2827 4.50667 79.0694 4.848C78.8667 5.18933 78.7654 5.62667 78.7654 6.16C78.7654 6.52267 78.84 6.832 78.9894 7.088C79.1387 7.33333 79.336 7.54133 79.5814 7.712C79.8267 7.872 80.104 8.00533 80.4134 8.112C80.7334 8.208 81.0587 8.29333 81.3894 8.368C82.2 8.53867 82.8294 8.70933 83.2774 8.88C83.736 9.05067 83.9654 9.30667 83.9654 9.648C83.9654 9.85067 83.9174 10.0213 83.8214 10.16C83.7254 10.288 83.6027 10.3947 83.4534 10.48C83.3147 10.5547 83.1547 10.6133 82.9734 10.656C82.8027 10.688 82.6374 10.704 82.4774 10.704C82.2534 10.704 82.0347 10.6773 81.8214 10.624C81.6187 10.5707 81.4374 10.4907 81.2774 10.384C81.1174 10.2667 80.984 10.1227 80.8774 9.952C80.7814 9.77067 80.7334 9.55733 80.7334 9.312Z" fill="#707070"/>
</svg>
