<svg width="55" height="16" viewBox="0 0 55 16" fill="none" xmlns="http://www.w3.org/2000/svg">
<path d="M0.104 0.575999V12H2.616V0.575999H0.104ZM4.64675 3.728V12H6.91875V7.2C6.91875 6.79467 6.97742 6.46933 7.09475 6.224C7.21208 5.968 7.35075 5.776 7.51075 5.648C7.68142 5.50933 7.85208 5.41867 8.02275 5.376C8.20408 5.32267 8.34808 5.296 8.45475 5.296C8.81742 5.296 9.08942 5.36 9.27075 5.488C9.46275 5.60533 9.59608 5.76533 9.67075 5.968C9.75608 6.17067 9.80408 6.39467 9.81475 6.64C9.82542 6.87467 9.83075 7.11467 9.83075 7.36V12H12.1028V7.392C12.1028 7.136 12.1188 6.88533 12.1508 6.64C12.1934 6.384 12.2681 6.16 12.3748 5.968C12.4921 5.76533 12.6468 5.60533 12.8388 5.488C13.0414 5.36 13.3028 5.296 13.6228 5.296C13.9428 5.296 14.1934 5.34933 14.3748 5.456C14.5668 5.56267 14.7108 5.70667 14.8068 5.888C14.9028 6.06933 14.9614 6.28267 14.9828 6.528C15.0041 6.77333 15.0148 7.03467 15.0148 7.312V12H17.2868V6.464C17.2868 5.93067 17.2121 5.47733 17.0628 5.104C16.9134 4.72 16.7054 4.41067 16.4388 4.176C16.1721 3.94133 15.8521 3.77067 15.4788 3.664C15.1054 3.55733 14.7001 3.504 14.2628 3.504C13.6868 3.504 13.1854 3.64267 12.7587 3.92C12.3428 4.19733 12.0121 4.51733 11.7668 4.88C11.5428 4.368 11.2121 4.01067 10.7748 3.808C10.3481 3.60533 9.87342 3.504 9.35075 3.504C8.80675 3.504 8.32142 3.62133 7.89475 3.856C7.47875 4.09067 7.12142 4.42133 6.82275 4.848H6.79075V3.728H4.64675ZM18.9868 6.272C19.0188 5.73867 19.1521 5.296 19.3868 4.944C19.6214 4.592 19.9201 4.30933 20.2828 4.096C20.6454 3.88267 21.0508 3.73333 21.4988 3.648C21.9574 3.552 22.4161 3.504 22.8748 3.504C23.2908 3.504 23.7121 3.536 24.1388 3.6C24.5654 3.65333 24.9548 3.76533 25.3068 3.936C25.6588 4.10667 25.9468 4.34667 26.1708 4.656C26.3948 4.95467 26.5068 5.35467 26.5068 5.856V10.16C26.5068 10.5333 26.5281 10.8907 26.5708 11.232C26.6134 11.5733 26.6881 11.8293 26.7948 12H24.4908C24.4481 11.872 24.4108 11.744 24.3788 11.616C24.3574 11.4773 24.3414 11.3387 24.3308 11.2C23.9681 11.5733 23.5414 11.8347 23.0508 11.984C22.5601 12.1333 22.0588 12.208 21.5468 12.208C21.1521 12.208 20.7841 12.16 20.4428 12.064C20.1014 11.968 19.8028 11.8187 19.5468 11.616C19.2908 11.4133 19.0881 11.1573 18.9388 10.848C18.8001 10.5387 18.7308 10.1707 18.7308 9.744C18.7308 9.27467 18.8108 8.89067 18.9708 8.592C19.1414 8.28267 19.3548 8.03733 19.6108 7.856C19.8774 7.67467 20.1761 7.54133 20.5068 7.456C20.8481 7.36 21.1894 7.28533 21.5308 7.232C21.8721 7.17867 22.2081 7.136 22.5388 7.104C22.8694 7.072 23.1628 7.024 23.4188 6.96C23.6748 6.896 23.8774 6.80533 24.0268 6.688C24.1761 6.56 24.2454 6.37867 24.2348 6.144C24.2348 5.89867 24.1921 5.70667 24.1068 5.568C24.0321 5.41867 23.9254 5.30667 23.7868 5.232C23.6588 5.14667 23.5041 5.09333 23.3228 5.072C23.1521 5.04 22.9654 5.024 22.7628 5.024C22.3148 5.024 21.9628 5.12 21.7068 5.312C21.4508 5.504 21.3014 5.824 21.2588 6.272H18.9868ZM24.2348 7.952C24.1388 8.03733 24.0161 8.10667 23.8668 8.16C23.7281 8.20267 23.5734 8.24 23.4028 8.272C23.2428 8.304 23.0721 8.33067 22.8908 8.352C22.7094 8.37333 22.5281 8.4 22.3468 8.432C22.1761 8.464 22.0054 8.50667 21.8348 8.56C21.6748 8.61333 21.5308 8.688 21.4028 8.784C21.2854 8.86933 21.1894 8.98133 21.1148 9.12C21.0401 9.25867 21.0028 9.43467 21.0028 9.648C21.0028 9.85067 21.0401 10.0213 21.1148 10.16C21.1894 10.2987 21.2908 10.4107 21.4188 10.496C21.5468 10.5707 21.6961 10.624 21.8668 10.656C22.0374 10.688 22.2134 10.704 22.3948 10.704C22.8428 10.704 23.1894 10.6293 23.4348 10.48C23.6801 10.3307 23.8614 10.1547 23.9788 9.952C24.0961 9.73867 24.1654 9.52533 24.1868 9.312C24.2188 9.09867 24.2348 8.928 24.2348 8.8V7.952ZM32.1263 10.048C31.7743 10.048 31.4809 9.97333 31.2463 9.824C31.0116 9.67467 30.8196 9.48267 30.6703 9.248C30.5316 9.01333 30.4303 8.752 30.3663 8.464C30.3129 8.16533 30.2863 7.86667 30.2863 7.568C30.2863 7.25867 30.3183 6.96533 30.3823 6.688C30.4569 6.4 30.5689 6.14933 30.7183 5.936C30.8783 5.712 31.0703 5.536 31.2943 5.408C31.5289 5.28 31.8063 5.216 32.1263 5.216C32.4996 5.216 32.8089 5.28533 33.0543 5.424C33.2996 5.56267 33.4969 5.74933 33.6463 5.984C33.7956 6.21867 33.9023 6.49067 33.9663 6.8C34.0303 7.09867 34.0623 7.41867 34.0623 7.76C34.0623 8.05867 34.0196 8.34667 33.9343 8.624C33.8596 8.89067 33.7423 9.13067 33.5823 9.344C33.4223 9.55733 33.2196 9.728 32.9743 9.856C32.7289 9.984 32.4463 10.048 32.1263 10.048ZM36.2222 11.472V3.728H34.0623V4.832H34.0303C33.7529 4.352 33.4063 4.01067 32.9903 3.808C32.5849 3.60533 32.1103 3.504 31.5663 3.504C30.9903 3.504 30.4783 3.616 30.0303 3.84C29.5929 4.064 29.2249 4.368 28.9263 4.752C28.6276 5.12533 28.3983 5.56267 28.2383 6.064C28.0889 6.55467 28.0143 7.06667 28.0143 7.6C28.0143 8.16533 28.0783 8.704 28.2063 9.216C28.3449 9.71733 28.5583 10.16 28.8463 10.544C29.1343 10.9173 29.5023 11.216 29.9503 11.44C30.3983 11.6533 30.9316 11.76 31.5503 11.76C32.0516 11.76 32.5263 11.6587 32.9743 11.456C33.4329 11.2427 33.7849 10.9173 34.0303 10.48H34.0623V11.568C34.0729 12.1547 33.9289 12.64 33.6303 13.024C33.3423 13.408 32.8783 13.6 32.2383 13.6C31.8329 13.6 31.4756 13.5147 31.1663 13.344C30.8569 13.184 30.6489 12.8907 30.5423 12.464H28.2863C28.3183 12.9333 28.4463 13.3333 28.6703 13.664C28.9049 14.0053 29.1929 14.2827 29.5343 14.496C29.8863 14.7093 30.2703 14.864 30.6863 14.96C31.1129 15.0667 31.5289 15.12 31.9343 15.12C32.8836 15.12 33.6409 14.992 34.2063 14.736C34.7716 14.48 35.2036 14.1653 35.5023 13.792C35.8009 13.4293 35.9929 13.0347 36.0783 12.608C36.1743 12.1813 36.2222 11.8027 36.2222 11.472ZM43.6195 6.976H39.9235C39.9342 6.816 39.9662 6.63467 40.0195 6.432C40.0835 6.22933 40.1848 6.03733 40.3235 5.856C40.4728 5.67467 40.6648 5.52533 40.8995 5.408C41.1448 5.28 41.4488 5.216 41.8115 5.216C42.3662 5.216 42.7768 5.36533 43.0435 5.664C43.3208 5.96267 43.5128 6.4 43.6195 6.976ZM39.9235 8.416H45.8915C45.9342 7.776 45.8808 7.16267 45.7315 6.576C45.5822 5.98933 45.3368 5.46667 44.9955 5.008C44.6648 4.54933 44.2382 4.18667 43.7155 3.92C43.1928 3.64267 42.5795 3.504 41.8755 3.504C41.2462 3.504 40.6702 3.616 40.1475 3.84C39.6355 4.064 39.1928 4.37333 38.8195 4.768C38.4462 5.152 38.1582 5.61067 37.9555 6.144C37.7528 6.67733 37.6515 7.25333 37.6515 7.872C37.6515 8.512 37.7475 9.09867 37.9395 9.632C38.1422 10.1653 38.4248 10.624 38.7875 11.008C39.1502 11.392 39.5928 11.6907 40.1155 11.904C40.6382 12.1067 41.2248 12.208 41.8755 12.208C42.8142 12.208 43.6142 11.9947 44.2755 11.568C44.9368 11.1413 45.4275 10.432 45.7475 9.44H43.7475C43.6728 9.696 43.4702 9.94133 43.1395 10.176C42.8088 10.4 42.4142 10.512 41.9555 10.512C41.3155 10.512 40.8248 10.3467 40.4835 10.016C40.1422 9.68533 39.9555 9.152 39.9235 8.416ZM48.999 9.312H46.839C46.8603 9.86667 46.983 10.3307 47.207 10.704C47.4417 11.0667 47.735 11.36 48.087 11.584C48.4497 11.808 48.8603 11.968 49.319 12.064C49.7777 12.16 50.247 12.208 50.727 12.208C51.1963 12.208 51.655 12.16 52.103 12.064C52.5617 11.9787 52.967 11.824 53.319 11.6C53.671 11.376 53.9537 11.0827 54.167 10.72C54.391 10.3467 54.503 9.888 54.503 9.344C54.503 8.96 54.4283 8.64 54.279 8.384C54.1297 8.11733 53.9323 7.89867 53.687 7.728C53.4417 7.54667 53.159 7.40267 52.839 7.296C52.5297 7.18933 52.2097 7.09867 51.879 7.024C51.559 6.94933 51.2443 6.88 50.935 6.816C50.6257 6.752 50.3483 6.68267 50.103 6.608C49.8683 6.52267 49.6763 6.416 49.527 6.288C49.3777 6.16 49.303 5.99467 49.303 5.792C49.303 5.62133 49.3457 5.488 49.431 5.392C49.5163 5.28533 49.6177 5.20533 49.735 5.152C49.863 5.09867 50.0017 5.06667 50.151 5.056C50.3003 5.03467 50.439 5.024 50.567 5.024C50.9723 5.024 51.3243 5.104 51.623 5.264C51.9217 5.41333 52.087 5.70667 52.119 6.144H54.279C54.2363 5.632 54.103 5.21067 53.879 4.88C53.6657 4.53867 53.3937 4.26667 53.063 4.064C52.7323 3.86133 52.3537 3.71733 51.927 3.632C51.511 3.54667 51.079 3.504 50.631 3.504C50.183 3.504 49.7457 3.54667 49.319 3.632C48.8923 3.70667 48.5083 3.84533 48.167 4.048C47.8257 4.24 47.5483 4.50667 47.335 4.848C47.1323 5.18933 47.031 5.62667 47.031 6.16C47.031 6.52267 47.1057 6.832 47.255 7.088C47.4043 7.33333 47.6017 7.54133 47.847 7.712C48.0923 7.872 48.3697 8.00533 48.679 8.112C48.999 8.208 49.3243 8.29333 49.655 8.368C50.4657 8.53867 51.095 8.70933 51.543 8.88C52.0017 9.05067 52.231 9.30667 52.231 9.648C52.231 9.85067 52.183 10.0213 52.087 10.16C51.991 10.288 51.8683 10.3947 51.719 10.48C51.5803 10.5547 51.4203 10.6133 51.239 10.656C51.0683 10.688 50.903 10.704 50.743 10.704C50.519 10.704 50.3003 10.6773 50.087 10.624C49.8843 10.5707 49.703 10.4907 49.543 10.384C49.383 10.2667 49.2497 10.1227 49.143 9.952C49.047 9.77067 48.999 9.55733 48.999 9.312Z" fill="#707070"/>
</svg>
