<svg width="52" height="13" viewBox="0 0 52 13" fill="none" xmlns="http://www.w3.org/2000/svg">
<path d="M7.416 12L11.208 0.575999H8.616L6.04 8.608H6.008L3.464 0.575999H0.888L4.584 12H7.416ZM13.9969 2.448V0.575999H11.7249V2.448H13.9969ZM11.7249 3.728V12H13.9969V3.728H11.7249ZM21.6579 7.84C21.6579 8.18133 21.6259 8.512 21.5619 8.832C21.4979 9.152 21.3912 9.44 21.2419 9.696C21.0925 9.94133 20.8899 10.1387 20.6339 10.288C20.3885 10.4373 20.0792 10.512 19.7059 10.512C19.3539 10.512 19.0499 10.4373 18.7939 10.288C18.5485 10.128 18.3405 9.92533 18.1699 9.68C18.0099 9.424 17.8925 9.136 17.8179 8.816C17.7432 8.496 17.7059 8.176 17.7059 7.856C17.7059 7.51467 17.7379 7.18933 17.8019 6.88C17.8765 6.56 17.9885 6.27733 18.1379 6.032C18.2979 5.78667 18.5059 5.58933 18.7619 5.44C19.0179 5.29067 19.3325 5.216 19.7059 5.216C20.0792 5.216 20.3885 5.29067 20.6339 5.44C20.8792 5.58933 21.0765 5.78667 21.2259 6.032C21.3859 6.26667 21.4979 6.544 21.5619 6.864C21.6259 7.17333 21.6579 7.49867 21.6579 7.84ZM21.6899 10.944V12H23.8499V0.575999H21.5779V4.736H21.5459C21.2899 4.33067 20.9379 4.02667 20.4899 3.824C20.0525 3.61067 19.5885 3.504 19.0979 3.504C18.4899 3.504 17.9565 3.62667 17.4979 3.872C17.0392 4.10667 16.6552 4.42133 16.3459 4.816C16.0472 5.21067 15.8179 5.66933 15.6579 6.192C15.5085 6.704 15.4339 7.23733 15.4339 7.792C15.4339 8.368 15.5085 8.92267 15.6579 9.456C15.8179 9.98933 16.0472 10.464 16.3459 10.88C16.6552 11.2853 17.0445 11.6107 17.5139 11.856C17.9832 12.0907 18.5272 12.208 19.1459 12.208C19.6899 12.208 20.1752 12.112 20.6019 11.92C21.0392 11.7173 21.3912 11.392 21.6579 10.944H21.6899ZM31.1351 6.976H27.4391C27.4498 6.816 27.4818 6.63467 27.5351 6.432C27.5991 6.22933 27.7005 6.03733 27.8391 5.856C27.9885 5.67467 28.1805 5.52533 28.4151 5.408C28.6605 5.28 28.9645 5.216 29.3271 5.216C29.8818 5.216 30.2925 5.36533 30.5591 5.664C30.8365 5.96267 31.0285 6.4 31.1351 6.976ZM27.4391 8.416H33.4071C33.4498 7.776 33.3965 7.16267 33.2471 6.576C33.0978 5.98933 32.8525 5.46667 32.5111 5.008C32.1805 4.54933 31.7538 4.18667 31.2311 3.92C30.7085 3.64267 30.0951 3.504 29.3911 3.504C28.7618 3.504 28.1858 3.616 27.6631 3.84C27.1511 4.064 26.7085 4.37333 26.3351 4.768C25.9618 5.152 25.6738 5.61067 25.4711 6.144C25.2685 6.67733 25.1671 7.25333 25.1671 7.872C25.1671 8.512 25.2631 9.09867 25.4551 9.632C25.6578 10.1653 25.9405 10.624 26.3031 11.008C26.6658 11.392 27.1085 11.6907 27.6311 11.904C28.1538 12.1067 28.7405 12.208 29.3911 12.208C30.3298 12.208 31.1298 11.9947 31.7911 11.568C32.4525 11.1413 32.9431 10.432 33.2631 9.44H31.2631C31.1885 9.696 30.9858 9.94133 30.6551 10.176C30.3245 10.4 29.9298 10.512 29.4711 10.512C28.8311 10.512 28.3405 10.3467 27.9991 10.016C27.6578 9.68533 27.4711 9.152 27.4391 8.416ZM36.7706 7.872C36.7706 7.54133 36.8026 7.216 36.8666 6.896C36.9306 6.576 37.0373 6.29333 37.1866 6.048C37.3466 5.80267 37.5546 5.60533 37.8106 5.456C38.0666 5.296 38.3866 5.216 38.7706 5.216C39.1546 5.216 39.4746 5.296 39.7306 5.456C39.9973 5.60533 40.2053 5.80267 40.3546 6.048C40.5146 6.29333 40.6266 6.576 40.6906 6.896C40.7546 7.216 40.7866 7.54133 40.7866 7.872C40.7866 8.20267 40.7546 8.528 40.6906 8.848C40.6266 9.15733 40.5146 9.44 40.3546 9.696C40.2053 9.94133 39.9973 10.1387 39.7306 10.288C39.4746 10.4373 39.1546 10.512 38.7706 10.512C38.3866 10.512 38.0666 10.4373 37.8106 10.288C37.5546 10.1387 37.3466 9.94133 37.1866 9.696C37.0373 9.44 36.9306 9.15733 36.8666 8.848C36.8026 8.528 36.7706 8.20267 36.7706 7.872ZM34.4986 7.872C34.4986 8.53333 34.6 9.13067 34.8026 9.664C35.0053 10.1973 35.2933 10.656 35.6666 11.04C36.04 11.4133 36.488 11.7013 37.0106 11.904C37.5333 12.1067 38.12 12.208 38.7706 12.208C39.4213 12.208 40.008 12.1067 40.5306 11.904C41.064 11.7013 41.5173 11.4133 41.8906 11.04C42.264 10.656 42.552 10.1973 42.7546 9.664C42.9573 9.13067 43.0586 8.53333 43.0586 7.872C43.0586 7.21067 42.9573 6.61333 42.7546 6.08C42.552 5.536 42.264 5.07733 41.8906 4.704C41.5173 4.32 41.064 4.02667 40.5306 3.824C40.008 3.61067 39.4213 3.504 38.7706 3.504C38.12 3.504 37.5333 3.61067 37.0106 3.824C36.488 4.02667 36.04 4.32 35.6666 4.704C35.2933 5.07733 35.0053 5.536 34.8026 6.08C34.6 6.61333 34.4986 7.21067 34.4986 7.872ZM46.2959 9.312H44.1359C44.1572 9.86667 44.2799 10.3307 44.5039 10.704C44.7385 11.0667 45.0319 11.36 45.3839 11.584C45.7465 11.808 46.1572 11.968 46.6159 12.064C47.0745 12.16 47.5439 12.208 48.0239 12.208C48.4932 12.208 48.9519 12.16 49.3999 12.064C49.8585 11.9787 50.2639 11.824 50.6159 11.6C50.9679 11.376 51.2505 11.0827 51.4639 10.72C51.6879 10.3467 51.7999 9.888 51.7999 9.344C51.7999 8.96 51.7252 8.64 51.5759 8.384C51.4265 8.11733 51.2292 7.89867 50.9839 7.728C50.7385 7.54667 50.4559 7.40267 50.1359 7.296C49.8265 7.18933 49.5065 7.09867 49.1759 7.024C48.8559 6.94933 48.5412 6.88 48.2319 6.816C47.9225 6.752 47.6452 6.68267 47.3999 6.608C47.1652 6.52267 46.9732 6.416 46.8239 6.288C46.6745 6.16 46.5999 5.99467 46.5999 5.792C46.5999 5.62133 46.6425 5.488 46.7279 5.392C46.8132 5.28533 46.9145 5.20533 47.0319 5.152C47.1599 5.09867 47.2985 5.06667 47.4479 5.056C47.5972 5.03467 47.7359 5.024 47.8639 5.024C48.2692 5.024 48.6212 5.104 48.9199 5.264C49.2185 5.41333 49.3839 5.70667 49.4159 6.144H51.5759C51.5332 5.632 51.3999 5.21067 51.1759 4.88C50.9625 4.53867 50.6905 4.26667 50.3599 4.064C50.0292 3.86133 49.6505 3.71733 49.2239 3.632C48.8079 3.54667 48.3759 3.504 47.9279 3.504C47.4799 3.504 47.0425 3.54667 46.6159 3.632C46.1892 3.70667 45.8052 3.84533 45.4639 4.048C45.1225 4.24 44.8452 4.50667 44.6319 4.848C44.4292 5.18933 44.3279 5.62667 44.3279 6.16C44.3279 6.52267 44.4025 6.832 44.5519 7.088C44.7012 7.33333 44.8985 7.54133 45.1439 7.712C45.3892 7.872 45.6665 8.00533 45.9759 8.112C46.2959 8.208 46.6212 8.29333 46.9519 8.368C47.7625 8.53867 48.3919 8.70933 48.8399 8.88C49.2985 9.05067 49.5279 9.30667 49.5279 9.648C49.5279 9.85067 49.4799 10.0213 49.3839 10.16C49.2879 10.288 49.1652 10.3947 49.0159 10.48C48.8772 10.5547 48.7172 10.6133 48.5359 10.656C48.3652 10.688 48.1999 10.704 48.0399 10.704C47.8159 10.704 47.5972 10.6773 47.3839 10.624C47.1812 10.5707 46.9999 10.4907 46.8399 10.384C46.6799 10.2667 46.5465 10.1227 46.4399 9.952C46.3439 9.77067 46.2959 9.55733 46.2959 9.312Z" fill="#707070"/>
</svg>
