<svg width="32" height="10" viewBox="0 0 32 10" fill="none" xmlns="http://www.w3.org/2000/svg">
<path d="M0.322719 0.431999V9H1.46272V5.076H5.97472V9H7.11472V0.431999H5.97472V4.116H1.46272V0.431999H0.322719ZM9.55888 5.904C9.55888 5.528 9.60688 5.196 9.70288 4.908C9.80688 4.612 9.94688 4.364 10.1229 4.164C10.2989 3.964 10.5029 3.812 10.7349 3.708C10.9749 3.604 11.2269 3.552 11.4909 3.552C11.7549 3.552 12.0029 3.604 12.2349 3.708C12.4749 3.812 12.6829 3.964 12.8589 4.164C13.0349 4.364 13.1709 4.612 13.2669 4.908C13.3709 5.196 13.4229 5.528 13.4229 5.904C13.4229 6.28 13.3709 6.616 13.2669 6.912C13.1709 7.2 13.0349 7.444 12.8589 7.644C12.6829 7.836 12.4749 7.984 12.2349 8.088C12.0029 8.192 11.7549 8.244 11.4909 8.244C11.2269 8.244 10.9749 8.192 10.7349 8.088C10.5029 7.984 10.2989 7.836 10.1229 7.644C9.94688 7.444 9.80688 7.2 9.70288 6.912C9.60688 6.616 9.55888 6.28 9.55888 5.904ZM8.47888 5.904C8.47888 6.36 8.54288 6.784 8.67088 7.176C8.79888 7.568 8.99088 7.912 9.24688 8.208C9.50288 8.496 9.81888 8.724 10.1949 8.892C10.5709 9.052 11.0029 9.132 11.4909 9.132C11.9869 9.132 12.4189 9.052 12.7869 8.892C13.1629 8.724 13.4789 8.496 13.7349 8.208C13.9909 7.912 14.1829 7.568 14.3109 7.176C14.4389 6.784 14.5029 6.36 14.5029 5.904C14.5029 5.448 14.4389 5.024 14.3109 4.632C14.1829 4.232 13.9909 3.888 13.7349 3.6C13.4789 3.304 13.1629 3.072 12.7869 2.904C12.4189 2.736 11.9869 2.652 11.4909 2.652C11.0029 2.652 10.5709 2.736 10.1949 2.904C9.81888 3.072 9.50288 3.304 9.24688 3.6C8.99088 3.888 8.79888 4.232 8.67088 4.632C8.54288 5.024 8.47888 5.448 8.47888 5.904ZM15.7055 2.796V9H16.7255V5.136C16.7255 5.016 16.7535 4.868 16.8095 4.692C16.8735 4.508 16.9695 4.332 17.0975 4.164C17.2335 3.996 17.4055 3.852 17.6135 3.732C17.8295 3.612 18.0855 3.552 18.3815 3.552C18.6135 3.552 18.8015 3.588 18.9455 3.66C19.0975 3.724 19.2175 3.82 19.3055 3.948C19.3935 4.068 19.4535 4.212 19.4855 4.38C19.5255 4.548 19.5455 4.732 19.5455 4.932V9H20.5655V5.136C20.5655 4.656 20.7095 4.272 20.9975 3.984C21.2855 3.696 21.6815 3.552 22.1855 3.552C22.4335 3.552 22.6335 3.588 22.7855 3.66C22.9455 3.732 23.0695 3.832 23.1575 3.96C23.2455 4.08 23.3055 4.224 23.3375 4.392C23.3695 4.56 23.3855 4.74 23.3855 4.932V9H24.4055V4.452C24.4055 4.132 24.3535 3.86 24.2495 3.636C24.1535 3.404 24.0135 3.216 23.8295 3.072C23.6535 2.928 23.4375 2.824 23.1815 2.76C22.9335 2.688 22.6535 2.652 22.3415 2.652C21.9335 2.652 21.5575 2.744 21.2135 2.928C20.8775 3.112 20.6055 3.372 20.3975 3.708C20.2695 3.324 20.0495 3.052 19.7375 2.892C19.4255 2.732 19.0775 2.652 18.6935 2.652C17.8215 2.652 17.1535 3.004 16.6895 3.708H16.6655V2.796H15.7055ZM30.244 5.304H26.68C26.696 5.064 26.748 4.84 26.836 4.632C26.924 4.416 27.044 4.228 27.196 4.068C27.348 3.908 27.528 3.784 27.736 3.696C27.952 3.6 28.192 3.552 28.456 3.552C28.712 3.552 28.944 3.6 29.152 3.696C29.368 3.784 29.552 3.908 29.704 4.068C29.864 4.22 29.988 4.404 30.076 4.62C30.172 4.836 30.228 5.064 30.244 5.304ZM31.228 7.032H30.22C30.132 7.44 29.948 7.744 29.668 7.944C29.396 8.144 29.044 8.244 28.612 8.244C28.276 8.244 27.984 8.188 27.736 8.076C27.488 7.964 27.284 7.816 27.124 7.632C26.964 7.44 26.848 7.224 26.776 6.984C26.704 6.736 26.672 6.476 26.68 6.204H31.324C31.34 5.828 31.304 5.432 31.216 5.016C31.136 4.6 30.984 4.216 30.76 3.864C30.544 3.512 30.252 3.224 29.884 3C29.524 2.768 29.068 2.652 28.516 2.652C28.092 2.652 27.7 2.732 27.34 2.892C26.988 3.052 26.68 3.276 26.416 3.564C26.16 3.852 25.96 4.192 25.816 4.584C25.672 4.976 25.6 5.408 25.6 5.88C25.616 6.352 25.684 6.788 25.804 7.188C25.932 7.588 26.12 7.932 26.368 8.22C26.616 8.508 26.92 8.732 27.28 8.892C27.648 9.052 28.08 9.132 28.576 9.132C29.28 9.132 29.864 8.956 30.328 8.604C30.792 8.252 31.092 7.728 31.228 7.032Z" fill="#C9D1D7"/>
</svg>
