<svg width="40" height="11" viewBox="0 0 40 11" fill="none" xmlns="http://www.w3.org/2000/svg">
<path d="M0.966 0.00399935V10H3.164V5.688H7.21V10H9.408V0.00399935H7.21V3.84H3.164V0.00399935H0.966ZM12.897 6.388C12.897 6.09867 12.925 5.814 12.981 5.534C13.037 5.254 13.1303 5.00667 13.261 4.792C13.401 4.57733 13.583 4.40467 13.807 4.274C14.031 4.134 14.311 4.064 14.647 4.064C14.983 4.064 15.263 4.134 15.487 4.274C15.7203 4.40467 15.9023 4.57733 16.033 4.792C16.173 5.00667 16.271 5.254 16.327 5.534C16.383 5.814 16.411 6.09867 16.411 6.388C16.411 6.67733 16.383 6.962 16.327 7.242C16.271 7.51267 16.173 7.76 16.033 7.984C15.9023 8.19867 15.7203 8.37133 15.487 8.502C15.263 8.63267 14.983 8.698 14.647 8.698C14.311 8.698 14.031 8.63267 13.807 8.502C13.583 8.37133 13.401 8.19867 13.261 7.984C13.1303 7.76 13.037 7.51267 12.981 7.242C12.925 6.962 12.897 6.67733 12.897 6.388ZM10.909 6.388C10.909 6.96667 10.9976 7.48933 11.175 7.956C11.3523 8.42267 11.6043 8.824 11.931 9.16C12.2576 9.48667 12.6496 9.73867 13.107 9.916C13.5643 10.0933 14.0776 10.182 14.647 10.182C15.2163 10.182 15.7296 10.0933 16.187 9.916C16.6536 9.73867 17.0503 9.48667 17.377 9.16C17.7036 8.824 17.9556 8.42267 18.133 7.956C18.3103 7.48933 18.399 6.96667 18.399 6.388C18.399 5.80933 18.3103 5.28667 18.133 4.82C17.9556 4.344 17.7036 3.94267 17.377 3.616C17.0503 3.28 16.6536 3.02333 16.187 2.846C15.7296 2.65933 15.2163 2.566 14.647 2.566C14.0776 2.566 13.5643 2.65933 13.107 2.846C12.6496 3.02333 12.2576 3.28 11.931 3.616C11.6043 3.94267 11.3523 4.344 11.175 4.82C10.9976 5.28667 10.909 5.80933 10.909 6.388ZM19.7475 2.762V10H21.7355V5.8C21.7355 5.44533 21.7869 5.16067 21.8895 4.946C21.9922 4.722 22.1135 4.554 22.2535 4.442C22.4029 4.32067 22.5522 4.24133 22.7015 4.204C22.8602 4.15733 22.9862 4.134 23.0795 4.134C23.3969 4.134 23.6349 4.19 23.7935 4.302C23.9615 4.40467 24.0782 4.54467 24.1435 4.722C24.2182 4.89933 24.2602 5.09533 24.2695 5.31C24.2789 5.51533 24.2835 5.72533 24.2835 5.94V10H26.2715V5.968C26.2715 5.744 26.2855 5.52467 26.3135 5.31C26.3509 5.086 26.4162 4.89 26.5095 4.722C26.6122 4.54467 26.7475 4.40467 26.9155 4.302C27.0929 4.19 27.3215 4.134 27.6015 4.134C27.8815 4.134 28.1009 4.18067 28.2595 4.274C28.4275 4.36733 28.5535 4.49333 28.6375 4.652C28.7215 4.81067 28.7729 4.99733 28.7915 5.212C28.8102 5.42667 28.8195 5.65533 28.8195 5.898V10H30.8075V5.156C30.8075 4.68933 30.7422 4.29267 30.6115 3.966C30.4809 3.63 30.2989 3.35933 30.0655 3.154C29.8322 2.94867 29.5522 2.79933 29.2255 2.706C28.8989 2.61267 28.5442 2.566 28.1615 2.566C27.6575 2.566 27.2189 2.68733 26.8455 2.93C26.4815 3.17267 26.1922 3.45267 25.9775 3.77C25.7815 3.322 25.4922 3.00933 25.1095 2.832C24.7362 2.65467 24.3209 2.566 23.8635 2.566C23.3875 2.566 22.9629 2.66867 22.5895 2.874C22.2255 3.07933 21.9129 3.36867 21.6515 3.742H21.6235V2.762H19.7475ZM37.251 5.604H34.017C34.0264 5.464 34.0544 5.30533 34.101 5.128C34.157 4.95067 34.2457 4.78267 34.367 4.624C34.4977 4.46533 34.6657 4.33467 34.871 4.232C35.0857 4.12 35.3517 4.064 35.669 4.064C36.1544 4.064 36.5137 4.19467 36.747 4.456C36.9897 4.71733 37.1577 5.1 37.251 5.604ZM34.017 6.864H39.239C39.2764 6.304 39.2297 5.76733 39.099 5.254C38.9684 4.74067 38.7537 4.28333 38.455 3.882C38.1657 3.48067 37.7924 3.16333 37.335 2.93C36.8777 2.68733 36.341 2.566 35.725 2.566C35.1744 2.566 34.6704 2.664 34.213 2.86C33.765 3.056 33.3777 3.32667 33.051 3.672C32.7244 4.008 32.4724 4.40933 32.295 4.876C32.1177 5.34267 32.029 5.84667 32.029 6.388C32.029 6.948 32.113 7.46133 32.281 7.928C32.4584 8.39467 32.7057 8.796 33.023 9.132C33.3404 9.468 33.7277 9.72933 34.185 9.916C34.6424 10.0933 35.1557 10.182 35.725 10.182C36.5464 10.182 37.2464 9.99533 37.825 9.622C38.4037 9.24867 38.833 8.628 39.113 7.76H37.363C37.2977 7.984 37.1204 8.19867 36.831 8.404C36.5417 8.6 36.1964 8.698 35.795 8.698C35.235 8.698 34.8057 8.55333 34.507 8.264C34.2084 7.97467 34.045 7.508 34.017 6.864Z" fill="#3072AC"/>
</svg>
