<svg width="27" height="10" viewBox="0 0 27 10" fill="none" xmlns="http://www.w3.org/2000/svg">
<path d="M5.67872 6.864V0.431999H4.53872V6.696C4.53872 7.168 4.43872 7.544 4.23872 7.824C4.04672 8.104 3.69072 8.244 3.17072 8.244C2.89072 8.244 2.65872 8.204 2.47472 8.124C2.29872 8.036 2.15872 7.916 2.05472 7.764C1.95872 7.612 1.89072 7.432 1.85072 7.224C1.81072 7.016 1.79072 6.788 1.79072 6.54V6.18H0.650719V6.708C0.650719 7.524 0.866719 8.144 1.29872 8.568C1.73072 8.984 2.34672 9.192 3.14672 9.192C3.62672 9.192 4.02672 9.128 4.34672 9C4.67472 8.864 4.93472 8.688 5.12672 8.472C5.32672 8.248 5.46672 7.996 5.54672 7.716C5.63472 7.436 5.67872 7.152 5.67872 6.864ZM8.12138 5.904C8.12138 5.528 8.16938 5.196 8.26538 4.908C8.36938 4.612 8.50938 4.364 8.68538 4.164C8.86138 3.964 9.06538 3.812 9.29738 3.708C9.53738 3.604 9.78938 3.552 10.0534 3.552C10.3174 3.552 10.5654 3.604 10.7974 3.708C11.0374 3.812 11.2454 3.964 11.4214 4.164C11.5974 4.364 11.7334 4.612 11.8294 4.908C11.9334 5.196 11.9854 5.528 11.9854 5.904C11.9854 6.28 11.9334 6.616 11.8294 6.912C11.7334 7.2 11.5974 7.444 11.4214 7.644C11.2454 7.836 11.0374 7.984 10.7974 8.088C10.5654 8.192 10.3174 8.244 10.0534 8.244C9.78938 8.244 9.53738 8.192 9.29738 8.088C9.06538 7.984 8.86138 7.836 8.68538 7.644C8.50938 7.444 8.36938 7.2 8.26538 6.912C8.16938 6.616 8.12138 6.28 8.12138 5.904ZM7.04138 5.904C7.04138 6.36 7.10538 6.784 7.23338 7.176C7.36138 7.568 7.55338 7.912 7.80938 8.208C8.06538 8.496 8.38138 8.724 8.75738 8.892C9.13338 9.052 9.56538 9.132 10.0534 9.132C10.5494 9.132 10.9814 9.052 11.3494 8.892C11.7254 8.724 12.0414 8.496 12.2974 8.208C12.5534 7.912 12.7454 7.568 12.8734 7.176C13.0014 6.784 13.0654 6.36 13.0654 5.904C13.0654 5.448 13.0014 5.024 12.8734 4.632C12.7454 4.232 12.5534 3.888 12.2974 3.6C12.0414 3.304 11.7254 3.072 11.3494 2.904C10.9814 2.736 10.5494 2.652 10.0534 2.652C9.56538 2.652 9.13338 2.736 8.75738 2.904C8.38138 3.072 8.06538 3.304 7.80938 3.6C7.55338 3.888 7.36138 4.232 7.23338 4.632C7.10538 5.024 7.04138 5.448 7.04138 5.904ZM14.304 0.431999V9H15.324V8.172H15.348C15.46 8.356 15.596 8.512 15.756 8.64C15.924 8.76 16.1 8.856 16.284 8.928C16.468 9 16.652 9.052 16.836 9.084C17.028 9.116 17.2 9.132 17.352 9.132C17.824 9.132 18.236 9.048 18.588 8.88C18.948 8.712 19.244 8.484 19.476 8.196C19.716 7.9 19.892 7.556 20.004 7.164C20.124 6.772 20.184 6.356 20.184 5.916C20.184 5.476 20.124 5.06 20.004 4.668C19.884 4.276 19.704 3.932 19.464 3.636C19.232 3.332 18.936 3.092 18.576 2.916C18.224 2.74 17.808 2.652 17.328 2.652C16.896 2.652 16.5 2.732 16.14 2.892C15.78 3.044 15.516 3.292 15.348 3.636H15.324V0.431999H14.304ZM19.104 5.844C19.104 6.148 19.072 6.444 19.008 6.732C18.944 7.02 18.84 7.276 18.696 7.5C18.552 7.724 18.36 7.904 18.12 8.04C17.888 8.176 17.596 8.244 17.244 8.244C16.892 8.244 16.592 8.18 16.344 8.052C16.096 7.916 15.892 7.74 15.732 7.524C15.58 7.308 15.468 7.06 15.396 6.78C15.324 6.492 15.288 6.196 15.288 5.892C15.288 5.604 15.32 5.32 15.384 5.04C15.456 4.76 15.568 4.512 15.72 4.296C15.872 4.072 16.068 3.892 16.308 3.756C16.548 3.62 16.84 3.552 17.184 3.552C17.512 3.552 17.796 3.616 18.036 3.744C18.284 3.872 18.484 4.044 18.636 4.26C18.796 4.476 18.912 4.724 18.984 5.004C19.064 5.276 19.104 5.556 19.104 5.844ZM22.0053 7.044H20.9853C21.0013 7.428 21.0813 7.756 21.2253 8.028C21.3693 8.292 21.5613 8.508 21.8013 8.676C22.0413 8.836 22.3173 8.952 22.6293 9.024C22.9413 9.096 23.2693 9.132 23.6133 9.132C23.9253 9.132 24.2373 9.1 24.5493 9.036C24.8693 8.98 25.1533 8.876 25.4013 8.724C25.6573 8.572 25.8613 8.372 26.0133 8.124C26.1733 7.876 26.2533 7.564 26.2533 7.188C26.2533 6.892 26.1933 6.644 26.0733 6.444C25.9613 6.244 25.8093 6.08 25.6173 5.952C25.4333 5.816 25.2173 5.708 24.9693 5.628C24.7293 5.548 24.4813 5.48 24.2253 5.424C23.9853 5.368 23.7453 5.316 23.5053 5.268C23.2653 5.212 23.0493 5.148 22.8573 5.076C22.6653 4.996 22.5053 4.9 22.3773 4.788C22.2573 4.668 22.1973 4.52 22.1973 4.344C22.1973 4.184 22.2373 4.056 22.3173 3.96C22.3973 3.856 22.5013 3.776 22.6293 3.72C22.7573 3.656 22.8973 3.612 23.0493 3.588C23.2093 3.564 23.3653 3.552 23.5173 3.552C23.6853 3.552 23.8493 3.572 24.0093 3.612C24.1773 3.644 24.3293 3.7 24.4653 3.78C24.6013 3.86 24.7133 3.968 24.8013 4.104C24.8893 4.232 24.9413 4.396 24.9573 4.596H25.9773C25.9533 4.22 25.8733 3.908 25.7373 3.66C25.6013 3.404 25.4173 3.204 25.1853 3.06C24.9613 2.908 24.7013 2.804 24.4053 2.748C24.1093 2.684 23.7853 2.652 23.4333 2.652C23.1613 2.652 22.8853 2.688 22.6053 2.76C22.3333 2.824 22.0853 2.928 21.8613 3.072C21.6453 3.208 21.4653 3.388 21.3213 3.612C21.1853 3.836 21.1173 4.104 21.1173 4.416C21.1173 4.816 21.2173 5.128 21.4173 5.352C21.6173 5.576 21.8653 5.752 22.1613 5.88C22.4653 6 22.7933 6.096 23.1453 6.168C23.4973 6.232 23.8213 6.308 24.1173 6.396C24.4213 6.476 24.6733 6.584 24.8733 6.72C25.0733 6.856 25.1733 7.056 25.1733 7.32C25.1733 7.512 25.1253 7.672 25.0293 7.8C24.9333 7.92 24.8093 8.012 24.6573 8.076C24.5133 8.14 24.3533 8.184 24.1773 8.208C24.0013 8.232 23.8333 8.244 23.6733 8.244C23.4653 8.244 23.2613 8.224 23.0613 8.184C22.8693 8.144 22.6933 8.08 22.5333 7.992C22.3813 7.896 22.2573 7.772 22.1613 7.62C22.0653 7.46 22.0133 7.268 22.0053 7.044Z" fill="#C9D1D7"/>
</svg>
