<svg width="33" height="11" viewBox="0 0 33 11" fill="none" xmlns="http://www.w3.org/2000/svg">
<path d="M6.818 6.85V0.00399935H4.62V6.752C4.62 6.92933 4.61067 7.116 4.592 7.312C4.58267 7.49867 4.54067 7.676 4.466 7.844C4.40067 8.00267 4.28867 8.13333 4.13 8.236C3.97133 8.33867 3.74733 8.39 3.458 8.39C3.19667 8.39 2.982 8.348 2.814 8.264C2.65533 8.18 2.52933 8.068 2.436 7.928C2.34267 7.77867 2.27733 7.60133 2.24 7.396C2.20267 7.19067 2.184 6.96667 2.184 6.724V6.276H0.196V7.144C0.196 7.69467 0.289333 8.166 0.476 8.558C0.662667 8.94067 0.91 9.258 1.218 9.51C1.526 9.75267 1.876 9.93 2.268 10.042C2.66 10.1633 3.066 10.224 3.486 10.224C4.23267 10.224 4.82533 10.112 5.264 9.888C5.70267 9.65467 6.03867 9.37 6.272 9.034C6.50533 8.68867 6.65467 8.32 6.72 7.928C6.78533 7.536 6.818 7.17667 6.818 6.85ZM10.2993 6.388C10.2993 6.09867 10.3273 5.814 10.3833 5.534C10.4393 5.254 10.5326 5.00667 10.6633 4.792C10.8033 4.57733 10.9853 4.40467 11.2093 4.274C11.4333 4.134 11.7133 4.064 12.0493 4.064C12.3853 4.064 12.6653 4.134 12.8893 4.274C13.1226 4.40467 13.3046 4.57733 13.4353 4.792C13.5753 5.00667 13.6733 5.254 13.7293 5.534C13.7853 5.814 13.8133 6.09867 13.8133 6.388C13.8133 6.67733 13.7853 6.962 13.7293 7.242C13.6733 7.51267 13.5753 7.76 13.4353 7.984C13.3046 8.19867 13.1226 8.37133 12.8893 8.502C12.6653 8.63267 12.3853 8.698 12.0493 8.698C11.7133 8.698 11.4333 8.63267 11.2093 8.502C10.9853 8.37133 10.8033 8.19867 10.6633 7.984C10.5326 7.76 10.4393 7.51267 10.3833 7.242C10.3273 6.962 10.2993 6.67733 10.2993 6.388ZM8.3113 6.388C8.3113 6.96667 8.39996 7.48933 8.5773 7.956C8.75463 8.42267 9.00663 8.824 9.3333 9.16C9.65996 9.48667 10.052 9.73867 10.5093 9.916C10.9666 10.0933 11.48 10.182 12.0493 10.182C12.6186 10.182 13.132 10.0933 13.5893 9.916C14.056 9.73867 14.4526 9.48667 14.7793 9.16C15.106 8.824 15.358 8.42267 15.5353 7.956C15.7126 7.48933 15.8013 6.96667 15.8013 6.388C15.8013 5.80933 15.7126 5.28667 15.5353 4.82C15.358 4.344 15.106 3.94267 14.7793 3.616C14.4526 3.28 14.056 3.02333 13.5893 2.846C13.132 2.65933 12.6186 2.566 12.0493 2.566C11.48 2.566 10.9666 2.65933 10.5093 2.846C10.052 3.02333 9.65996 3.28 9.3333 3.616C9.00663 3.94267 8.75463 4.344 8.5773 4.82C8.39996 5.28667 8.3113 5.80933 8.3113 6.388ZM22.3999 6.388C22.3999 6.68667 22.3672 6.976 22.3019 7.256C22.2366 7.536 22.1339 7.78333 21.9939 7.998C21.8539 8.21267 21.6766 8.38533 21.4619 8.516C21.2566 8.63733 21.0046 8.698 20.7059 8.698C20.4166 8.698 20.1646 8.63733 19.9499 8.516C19.7352 8.38533 19.5579 8.21267 19.4179 7.998C19.2779 7.78333 19.1752 7.536 19.1099 7.256C19.0446 6.976 19.0119 6.68667 19.0119 6.388C19.0119 6.08 19.0446 5.786 19.1099 5.506C19.1752 5.226 19.2779 4.97867 19.4179 4.764C19.5579 4.54933 19.7352 4.38133 19.9499 4.26C20.1646 4.12933 20.4166 4.064 20.7059 4.064C21.0046 4.064 21.2566 4.12933 21.4619 4.26C21.6766 4.38133 21.8539 4.54933 21.9939 4.764C22.1339 4.97867 22.2366 5.226 22.3019 5.506C22.3672 5.786 22.3999 6.08 22.3999 6.388ZM17.0939 0.00399935V10H18.9839V9.076H19.0119C19.2266 9.47733 19.5439 9.762 19.9639 9.93C20.3839 10.098 20.8599 10.182 21.3919 10.182C21.7559 10.182 22.1152 10.1073 22.4699 9.958C22.8246 9.80867 23.1419 9.58 23.4219 9.272C23.7112 8.964 23.9446 8.572 24.1219 8.096C24.2992 7.61067 24.3879 7.03667 24.3879 6.374C24.3879 5.71133 24.2992 5.142 24.1219 4.666C23.9446 4.18067 23.7112 3.784 23.4219 3.476C23.1419 3.168 22.8246 2.93933 22.4699 2.79C22.1152 2.64067 21.7559 2.566 21.3919 2.566C20.9439 2.566 20.5099 2.65467 20.0899 2.832C19.6792 3 19.3526 3.27067 19.1099 3.644H19.0819V0.00399935H17.0939ZM27.1925 7.648H25.3025C25.3212 8.13333 25.4285 8.53933 25.6245 8.866C25.8298 9.18333 26.0865 9.44 26.3945 9.636C26.7118 9.832 27.0712 9.972 27.4725 10.056C27.8738 10.14 28.2845 10.182 28.7045 10.182C29.1152 10.182 29.5165 10.14 29.9085 10.056C30.3098 9.98133 30.6645 9.846 30.9725 9.65C31.2805 9.454 31.5278 9.19733 31.7145 8.88C31.9105 8.55333 32.0085 8.152 32.0085 7.676C32.0085 7.34 31.9432 7.06 31.8125 6.836C31.6818 6.60267 31.5092 6.41133 31.2945 6.262C31.0798 6.10333 30.8325 5.97733 30.5525 5.884C30.2818 5.79067 30.0018 5.71133 29.7125 5.646C29.4325 5.58067 29.1572 5.52 28.8865 5.464C28.6158 5.408 28.3732 5.34733 28.1585 5.282C27.9532 5.20733 27.7852 5.114 27.6545 5.002C27.5238 4.89 27.4585 4.74533 27.4585 4.568C27.4585 4.41867 27.4958 4.302 27.5705 4.218C27.6452 4.12467 27.7338 4.05467 27.8365 4.008C27.9485 3.96133 28.0698 3.93333 28.2005 3.924C28.3312 3.90533 28.4525 3.896 28.5645 3.896C28.9192 3.896 29.2272 3.966 29.4885 4.106C29.7498 4.23667 29.8945 4.49333 29.9225 4.876H31.8125C31.7752 4.428 31.6585 4.05933 31.4625 3.77C31.2758 3.47133 31.0378 3.23333 30.7485 3.056C30.4592 2.87867 30.1278 2.75267 29.7545 2.678C29.3905 2.60333 29.0125 2.566 28.6205 2.566C28.2285 2.566 27.8458 2.60333 27.4725 2.678C27.0992 2.74333 26.7632 2.86467 26.4645 3.042C26.1658 3.21 25.9232 3.44333 25.7365 3.742C25.5592 4.04067 25.4705 4.42333 25.4705 4.89C25.4705 5.20733 25.5358 5.478 25.6665 5.702C25.7972 5.91667 25.9698 6.09867 26.1845 6.248C26.3992 6.388 26.6418 6.50467 26.9125 6.598C27.1925 6.682 27.4772 6.75667 27.7665 6.822C28.4758 6.97133 29.0265 7.12067 29.4185 7.27C29.8198 7.41933 30.0205 7.64333 30.0205 7.942C30.0205 8.11933 29.9785 8.26867 29.8945 8.39C29.8105 8.502 29.7032 8.59533 29.5725 8.67C29.4512 8.73533 29.3112 8.78667 29.1525 8.824C29.0032 8.852 28.8585 8.866 28.7185 8.866C28.5225 8.866 28.3312 8.84267 28.1445 8.796C27.9672 8.74933 27.8085 8.67933 27.6685 8.586C27.5285 8.48333 27.4118 8.35733 27.3185 8.208C27.2345 8.04933 27.1925 7.86267 27.1925 7.648Z" fill="#707070"/>
</svg>
