<svg width="57" height="12" viewBox="0 0 57 12" fill="none" xmlns="http://www.w3.org/2000/svg">
<path d="M0.233438 0.431999V9H1.31344V1.872H1.33744L4.01344 9H4.98544L7.66144 1.872H7.68544V9H8.76544V0.431999H7.20544L4.49344 7.632L1.79344 0.431999H0.233438ZM14.8026 5.304H11.2386C11.2546 5.064 11.3066 4.84 11.3946 4.632C11.4826 4.416 11.6026 4.228 11.7546 4.068C11.9066 3.908 12.0866 3.784 12.2946 3.696C12.5106 3.6 12.7506 3.552 13.0146 3.552C13.2706 3.552 13.5026 3.6 13.7106 3.696C13.9266 3.784 14.1106 3.908 14.2626 4.068C14.4226 4.22 14.5466 4.404 14.6346 4.62C14.7306 4.836 14.7866 5.064 14.8026 5.304ZM15.7866 7.032H14.7786C14.6906 7.44 14.5066 7.744 14.2266 7.944C13.9546 8.144 13.6026 8.244 13.1706 8.244C12.8346 8.244 12.5426 8.188 12.2946 8.076C12.0466 7.964 11.8426 7.816 11.6826 7.632C11.5226 7.44 11.4066 7.224 11.3346 6.984C11.2626 6.736 11.2306 6.476 11.2386 6.204H15.8826C15.8986 5.828 15.8626 5.432 15.7746 5.016C15.6946 4.6 15.5426 4.216 15.3186 3.864C15.1026 3.512 14.8106 3.224 14.4426 3C14.0826 2.768 13.6266 2.652 13.0746 2.652C12.6506 2.652 12.2586 2.732 11.8986 2.892C11.5466 3.052 11.2386 3.276 10.9746 3.564C10.7186 3.852 10.5186 4.192 10.3746 4.584C10.2306 4.976 10.1586 5.408 10.1586 5.88C10.1746 6.352 10.2426 6.788 10.3626 7.188C10.4906 7.588 10.6786 7.932 10.9266 8.22C11.1746 8.508 11.4786 8.732 11.8386 8.892C12.2066 9.052 12.6386 9.132 13.1346 9.132C13.8386 9.132 14.4226 8.956 14.8866 8.604C15.3506 8.252 15.6506 7.728 15.7866 7.032ZM17.5639 7.044H16.5439C16.5599 7.428 16.6399 7.756 16.7839 8.028C16.9279 8.292 17.1199 8.508 17.3599 8.676C17.5999 8.836 17.8759 8.952 18.1879 9.024C18.4999 9.096 18.8279 9.132 19.1719 9.132C19.4839 9.132 19.7959 9.1 20.1079 9.036C20.4279 8.98 20.7119 8.876 20.9599 8.724C21.2159 8.572 21.4199 8.372 21.5719 8.124C21.7319 7.876 21.8119 7.564 21.8119 7.188C21.8119 6.892 21.7519 6.644 21.6319 6.444C21.5199 6.244 21.3679 6.08 21.1759 5.952C20.9919 5.816 20.7759 5.708 20.5279 5.628C20.2879 5.548 20.0399 5.48 19.7839 5.424C19.5439 5.368 19.3039 5.316 19.0639 5.268C18.8239 5.212 18.6079 5.148 18.4159 5.076C18.2239 4.996 18.0639 4.9 17.9359 4.788C17.8159 4.668 17.7559 4.52 17.7559 4.344C17.7559 4.184 17.7959 4.056 17.8759 3.96C17.9559 3.856 18.0599 3.776 18.1879 3.72C18.3159 3.656 18.4559 3.612 18.6079 3.588C18.7679 3.564 18.9239 3.552 19.0759 3.552C19.2439 3.552 19.4079 3.572 19.5679 3.612C19.7359 3.644 19.8879 3.7 20.0239 3.78C20.1599 3.86 20.2719 3.968 20.3599 4.104C20.4479 4.232 20.4999 4.396 20.5159 4.596H21.5359C21.5119 4.22 21.4319 3.908 21.2959 3.66C21.1599 3.404 20.9759 3.204 20.7439 3.06C20.5199 2.908 20.2599 2.804 19.9639 2.748C19.6679 2.684 19.3439 2.652 18.9919 2.652C18.7199 2.652 18.4439 2.688 18.1639 2.76C17.8919 2.824 17.6439 2.928 17.4199 3.072C17.2039 3.208 17.0239 3.388 16.8799 3.612C16.7439 3.836 16.6759 4.104 16.6759 4.416C16.6759 4.816 16.7759 5.128 16.9759 5.352C17.1759 5.576 17.4239 5.752 17.7199 5.88C18.0239 6 18.3519 6.096 18.7039 6.168C19.0559 6.232 19.3799 6.308 19.6759 6.396C19.9799 6.476 20.2319 6.584 20.4319 6.72C20.6319 6.856 20.7319 7.056 20.7319 7.32C20.7319 7.512 20.6839 7.672 20.5879 7.8C20.4919 7.92 20.3679 8.012 20.2159 8.076C20.0719 8.14 19.9119 8.184 19.7359 8.208C19.5599 8.232 19.3919 8.244 19.2319 8.244C19.0239 8.244 18.8199 8.224 18.6199 8.184C18.4279 8.144 18.2519 8.08 18.0919 7.992C17.9399 7.896 17.8159 7.772 17.7199 7.62C17.6239 7.46 17.5719 7.268 17.5639 7.044ZM23.5639 7.044H22.5439C22.5599 7.428 22.6399 7.756 22.7839 8.028C22.9279 8.292 23.1199 8.508 23.3599 8.676C23.5999 8.836 23.8759 8.952 24.1879 9.024C24.4999 9.096 24.8279 9.132 25.1719 9.132C25.4839 9.132 25.7959 9.1 26.1079 9.036C26.4279 8.98 26.7119 8.876 26.9599 8.724C27.2159 8.572 27.4199 8.372 27.5719 8.124C27.7319 7.876 27.8119 7.564 27.8119 7.188C27.8119 6.892 27.7519 6.644 27.6319 6.444C27.5199 6.244 27.3679 6.08 27.1759 5.952C26.9919 5.816 26.7759 5.708 26.5279 5.628C26.2879 5.548 26.0399 5.48 25.7839 5.424C25.5439 5.368 25.3039 5.316 25.0639 5.268C24.8239 5.212 24.6079 5.148 24.4159 5.076C24.2239 4.996 24.0639 4.9 23.9359 4.788C23.8159 4.668 23.7559 4.52 23.7559 4.344C23.7559 4.184 23.7959 4.056 23.8759 3.96C23.9559 3.856 24.0599 3.776 24.1879 3.72C24.3159 3.656 24.4559 3.612 24.6079 3.588C24.7679 3.564 24.9239 3.552 25.0759 3.552C25.2439 3.552 25.4079 3.572 25.5679 3.612C25.7359 3.644 25.8879 3.7 26.0239 3.78C26.1599 3.86 26.2719 3.968 26.3599 4.104C26.4479 4.232 26.4999 4.396 26.5159 4.596H27.5359C27.5119 4.22 27.4319 3.908 27.2959 3.66C27.1599 3.404 26.9759 3.204 26.7439 3.06C26.5199 2.908 26.2599 2.804 25.9639 2.748C25.6679 2.684 25.3439 2.652 24.9919 2.652C24.7199 2.652 24.4439 2.688 24.1639 2.76C23.8919 2.824 23.6439 2.928 23.4199 3.072C23.2039 3.208 23.0239 3.388 22.8799 3.612C22.7439 3.836 22.6759 4.104 22.6759 4.416C22.6759 4.816 22.7759 5.128 22.9759 5.352C23.1759 5.576 23.4239 5.752 23.7199 5.88C24.0239 6 24.3519 6.096 24.7039 6.168C25.0559 6.232 25.3799 6.308 25.6759 6.396C25.9799 6.476 26.2319 6.584 26.4319 6.72C26.6319 6.856 26.7319 7.056 26.7319 7.32C26.7319 7.512 26.6839 7.672 26.5879 7.8C26.4919 7.92 26.3679 8.012 26.2159 8.076C26.0719 8.14 25.9119 8.184 25.7359 8.208C25.5599 8.232 25.3919 8.244 25.2319 8.244C25.0239 8.244 24.8199 8.224 24.6199 8.184C24.4279 8.144 24.2519 8.08 24.0919 7.992C23.9399 7.896 23.8159 7.772 23.7199 7.62C23.6239 7.46 23.5719 7.268 23.5639 7.044ZM34.4359 8.976C34.2599 9.08 34.0159 9.132 33.7039 9.132C33.4399 9.132 33.2279 9.06 33.0679 8.916C32.9159 8.764 32.8399 8.52 32.8399 8.184C32.5599 8.52 32.2319 8.764 31.8559 8.916C31.4879 9.06 31.0879 9.132 30.6559 9.132C30.3759 9.132 30.1079 9.1 29.8519 9.036C29.6039 8.972 29.3879 8.872 29.2039 8.736C29.0199 8.6 28.8719 8.424 28.7599 8.208C28.6559 7.984 28.6039 7.716 28.6039 7.404C28.6039 7.052 28.6639 6.764 28.7839 6.54C28.9039 6.316 29.0599 6.136 29.2519 6C29.4519 5.856 29.6759 5.748 29.9239 5.676C30.1799 5.604 30.4399 5.544 30.7039 5.496C30.9839 5.44 31.2479 5.4 31.4959 5.376C31.7519 5.344 31.9759 5.304 32.1679 5.256C32.3599 5.2 32.5119 5.124 32.6239 5.028C32.7359 4.924 32.7919 4.776 32.7919 4.584C32.7919 4.36 32.7479 4.18 32.6599 4.044C32.5799 3.908 32.4719 3.804 32.3359 3.732C32.2079 3.66 32.0599 3.612 31.8919 3.588C31.7319 3.564 31.5719 3.552 31.4119 3.552C30.9799 3.552 30.6199 3.636 30.3319 3.804C30.0439 3.964 29.8879 4.272 29.8639 4.728H28.8439C28.8599 4.344 28.9399 4.02 29.0839 3.756C29.2279 3.492 29.4199 3.28 29.6599 3.12C29.8999 2.952 30.1719 2.832 30.4759 2.76C30.7879 2.688 31.1199 2.652 31.4719 2.652C31.7519 2.652 32.0279 2.672 32.2999 2.712C32.5799 2.752 32.8319 2.836 33.0559 2.964C33.2799 3.084 33.4599 3.256 33.5959 3.48C33.7319 3.704 33.7999 3.996 33.7999 4.356V7.548C33.7999 7.788 33.8119 7.964 33.8359 8.076C33.8679 8.188 33.9639 8.244 34.1239 8.244C34.2119 8.244 34.3159 8.224 34.4359 8.184V8.976ZM32.7799 5.796C32.6519 5.892 32.4839 5.964 32.2759 6.012C32.0679 6.052 31.8479 6.088 31.6159 6.12C31.3919 6.144 31.1639 6.176 30.9319 6.216C30.6999 6.248 30.4919 6.304 30.3079 6.384C30.1239 6.464 29.9719 6.58 29.8519 6.732C29.7399 6.876 29.6839 7.076 29.6839 7.332C29.6839 7.5 29.7159 7.644 29.7799 7.764C29.8519 7.876 29.9399 7.968 30.0439 8.04C30.1559 8.112 30.2839 8.164 30.4279 8.196C30.5719 8.228 30.7239 8.244 30.8839 8.244C31.2199 8.244 31.5079 8.2 31.7479 8.112C31.9879 8.016 32.1839 7.9 32.3359 7.764C32.4879 7.62 32.5999 7.468 32.6719 7.308C32.7439 7.14 32.7799 6.984 32.7799 6.84V5.796ZM40.7372 8.472V2.796H39.7772V3.684H39.7652C39.5812 3.34 39.3252 3.084 38.9972 2.916C38.6692 2.74 38.3092 2.652 37.9172 2.652C37.3812 2.652 36.9292 2.756 36.5612 2.964C36.1932 3.164 35.8972 3.424 35.6732 3.744C35.4492 4.056 35.2892 4.408 35.1932 4.8C35.0972 5.184 35.0492 5.56 35.0492 5.928C35.0492 6.352 35.1052 6.756 35.2172 7.14C35.3372 7.516 35.5132 7.848 35.7452 8.136C35.9772 8.416 36.2652 8.64 36.6092 8.808C36.9532 8.976 37.3572 9.06 37.8212 9.06C38.2212 9.06 38.5972 8.972 38.9492 8.796C39.3092 8.612 39.5772 8.328 39.7532 7.944H39.7772V8.352C39.7772 8.696 39.7412 9.012 39.6692 9.3C39.6052 9.588 39.4972 9.832 39.3452 10.032C39.1932 10.24 39.0012 10.4 38.7692 10.512C38.5372 10.632 38.2532 10.692 37.9172 10.692C37.7492 10.692 37.5732 10.672 37.3892 10.632C37.2052 10.6 37.0332 10.544 36.8732 10.464C36.7212 10.384 36.5892 10.28 36.4772 10.152C36.3732 10.024 36.3172 9.868 36.3092 9.684H35.2892C35.3052 10.02 35.3932 10.304 35.5532 10.536C35.7132 10.768 35.9132 10.956 36.1532 11.1C36.4012 11.244 36.6732 11.348 36.9692 11.412C37.2732 11.476 37.5692 11.508 37.8572 11.508C38.8492 11.508 39.5772 11.256 40.0412 10.752C40.5052 10.248 40.7372 9.488 40.7372 8.472ZM37.8812 8.172C37.5452 8.172 37.2652 8.104 37.0412 7.968C36.8172 7.824 36.6372 7.64 36.5012 7.416C36.3652 7.184 36.2692 6.928 36.2132 6.648C36.1572 6.368 36.1292 6.088 36.1292 5.808C36.1292 5.512 36.1612 5.228 36.2252 4.956C36.2972 4.684 36.4052 4.444 36.5492 4.236C36.7012 4.028 36.8932 3.864 37.1252 3.744C37.3572 3.616 37.6372 3.552 37.9652 3.552C38.2852 3.552 38.5572 3.616 38.7812 3.744C39.0052 3.872 39.1852 4.044 39.3212 4.26C39.4652 4.468 39.5692 4.704 39.6332 4.968C39.6972 5.232 39.7292 5.5 39.7292 5.772C39.7292 6.06 39.6932 6.348 39.6212 6.636C39.5572 6.924 39.4532 7.184 39.3092 7.416C39.1652 7.64 38.9732 7.824 38.7332 7.968C38.5012 8.104 38.2172 8.172 37.8812 8.172ZM43.3558 1.68V0.431999H42.3358V1.68H43.3558ZM42.3358 2.796V9H43.3558V2.796H42.3358ZM44.936 2.796V9H45.956V5.496C45.956 5.216 45.992 4.96 46.064 4.728C46.144 4.488 46.26 4.28 46.412 4.104C46.564 3.928 46.752 3.792 46.976 3.696C47.208 3.6 47.48 3.552 47.792 3.552C48.184 3.552 48.492 3.664 48.716 3.888C48.94 4.112 49.052 4.416 49.052 4.8V9H50.072V4.92C50.072 4.584 50.036 4.28 49.964 4.008C49.9 3.728 49.784 3.488 49.616 3.288C49.448 3.088 49.228 2.932 48.956 2.82C48.684 2.708 48.344 2.652 47.936 2.652C47.016 2.652 46.344 3.028 45.92 3.78H45.896V2.796H44.936ZM56.9559 8.472V2.796H55.9959V3.684H55.9839C55.7999 3.34 55.5439 3.084 55.2159 2.916C54.8879 2.74 54.5279 2.652 54.1359 2.652C53.5999 2.652 53.1479 2.756 52.7799 2.964C52.4119 3.164 52.1159 3.424 51.8919 3.744C51.6679 4.056 51.5079 4.408 51.4119 4.8C51.3159 5.184 51.2679 5.56 51.2679 5.928C51.2679 6.352 51.3239 6.756 51.4359 7.14C51.5559 7.516 51.7319 7.848 51.9639 8.136C52.1959 8.416 52.4839 8.64 52.8279 8.808C53.1719 8.976 53.5759 9.06 54.0399 9.06C54.4399 9.06 54.8159 8.972 55.1679 8.796C55.5279 8.612 55.7959 8.328 55.9719 7.944H55.9959V8.352C55.9959 8.696 55.9599 9.012 55.8879 9.3C55.8239 9.588 55.7159 9.832 55.5639 10.032C55.4119 10.24 55.2199 10.4 54.9879 10.512C54.7559 10.632 54.4719 10.692 54.1359 10.692C53.9679 10.692 53.7919 10.672 53.6079 10.632C53.4239 10.6 53.2519 10.544 53.0919 10.464C52.9399 10.384 52.8079 10.28 52.6959 10.152C52.5919 10.024 52.5359 9.868 52.5279 9.684H51.5079C51.5239 10.02 51.6119 10.304 51.7719 10.536C51.9319 10.768 52.1319 10.956 52.3719 11.1C52.6199 11.244 52.8919 11.348 53.1879 11.412C53.4919 11.476 53.7879 11.508 54.0759 11.508C55.0679 11.508 55.7959 11.256 56.2599 10.752C56.7239 10.248 56.9559 9.488 56.9559 8.472ZM54.0999 8.172C53.7639 8.172 53.4839 8.104 53.2599 7.968C53.0359 7.824 52.8559 7.64 52.7199 7.416C52.5839 7.184 52.4879 6.928 52.4319 6.648C52.3759 6.368 52.3479 6.088 52.3479 5.808C52.3479 5.512 52.3799 5.228 52.4439 4.956C52.5159 4.684 52.6239 4.444 52.7679 4.236C52.9199 4.028 53.1119 3.864 53.3439 3.744C53.5759 3.616 53.8559 3.552 54.1839 3.552C54.5039 3.552 54.7759 3.616 54.9999 3.744C55.2239 3.872 55.4039 4.044 55.5399 4.26C55.6839 4.468 55.7879 4.704 55.8519 4.968C55.9159 5.232 55.9479 5.5 55.9479 5.772C55.9479 6.06 55.9119 6.348 55.8399 6.636C55.7759 6.924 55.6719 7.184 55.5279 7.416C55.3839 7.64 55.1919 7.824 54.9519 7.968C54.7199 8.104 54.4359 8.172 54.0999 8.172Z" fill="#C9D1D7"/>
</svg>
