<svg width="16" height="10" viewBox="0 0 16 10" fill="none" xmlns="http://www.w3.org/2000/svg">
<path d="M0.0107813 0.431999V9H1.09078V1.872H1.11478L3.79078 9H4.76278L7.43878 1.872H7.46278V9H8.54278V0.431999H6.98278L4.27078 7.632L1.57078 0.431999H0.0107813ZM14.5799 5.304H11.0159C11.0319 5.064 11.0839 4.84 11.1719 4.632C11.2599 4.416 11.3799 4.228 11.5319 4.068C11.6839 3.908 11.8639 3.784 12.0719 3.696C12.2879 3.6 12.5279 3.552 12.7919 3.552C13.0479 3.552 13.2799 3.6 13.4879 3.696C13.7039 3.784 13.8879 3.908 14.0399 4.068C14.1999 4.22 14.3239 4.404 14.4119 4.62C14.5079 4.836 14.5639 5.064 14.5799 5.304ZM15.5639 7.032H14.5559C14.4679 7.44 14.2839 7.744 14.0039 7.944C13.7319 8.144 13.3799 8.244 12.9479 8.244C12.6119 8.244 12.3199 8.188 12.0719 8.076C11.8239 7.964 11.6199 7.816 11.4599 7.632C11.2999 7.44 11.1839 7.224 11.1119 6.984C11.0399 6.736 11.0079 6.476 11.0159 6.204H15.6599C15.6759 5.828 15.6399 5.432 15.5519 5.016C15.4719 4.6 15.3199 4.216 15.0959 3.864C14.8799 3.512 14.5879 3.224 14.2199 3C13.8599 2.768 13.4039 2.652 12.8519 2.652C12.4279 2.652 12.0359 2.732 11.6759 2.892C11.3239 3.052 11.0159 3.276 10.7519 3.564C10.4959 3.852 10.2959 4.192 10.1519 4.584C10.0079 4.976 9.93591 5.408 9.93591 5.88C9.95191 6.352 10.0199 6.788 10.1399 7.188C10.2679 7.588 10.4559 7.932 10.7039 8.22C10.9519 8.508 11.2559 8.732 11.6159 8.892C11.9839 9.052 12.4159 9.132 12.9119 9.132C13.6159 9.132 14.1999 8.956 14.6639 8.604C15.1279 8.252 15.4279 7.728 15.5639 7.032Z" fill="#C9D1D7"/>
</svg>
