<svg width="42" height="12" viewBox="0 0 42 12" fill="none" xmlns="http://www.w3.org/2000/svg">
<path d="M6.26895 2.94H7.34895C7.33295 2.468 7.24095 2.064 7.07295 1.728C6.91295 1.384 6.68895 1.1 6.40095 0.875999C6.12095 0.651999 5.79295 0.487999 5.41695 0.383999C5.04095 0.28 4.63295 0.228 4.19295 0.228C3.80095 0.228 3.41695 0.28 3.04095 0.383999C2.67295 0.48 2.34095 0.632 2.04495 0.84C1.75695 1.04 1.52495 1.3 1.34895 1.62C1.17295 1.932 1.08495 2.304 1.08495 2.736C1.08495 3.128 1.16095 3.456 1.31295 3.72C1.47295 3.976 1.68095 4.188 1.93695 4.356C2.20095 4.516 2.49695 4.648 2.82495 4.752C3.15295 4.848 3.48495 4.936 3.82095 5.016C4.16495 5.088 4.50095 5.16 4.82895 5.232C5.15695 5.304 5.44895 5.4 5.70495 5.52C5.96895 5.632 6.17695 5.78 6.32895 5.964C6.48895 6.148 6.56895 6.388 6.56895 6.684C6.56895 6.996 6.50495 7.252 6.37695 7.452C6.24895 7.652 6.08095 7.812 5.87295 7.932C5.66495 8.044 5.42895 8.124 5.16495 8.172C4.90895 8.22 4.65295 8.244 4.39695 8.244C4.07695 8.244 3.76495 8.204 3.46095 8.124C3.15695 8.044 2.88895 7.92 2.65695 7.752C2.43295 7.584 2.24895 7.372 2.10495 7.116C1.96895 6.852 1.90095 6.54 1.90095 6.18H0.820953C0.820953 6.7 0.912953 7.152 1.09695 7.536C1.28895 7.912 1.54495 8.224 1.86495 8.472C2.19295 8.712 2.56895 8.892 2.99295 9.012C3.42495 9.132 3.88095 9.192 4.36095 9.192C4.75295 9.192 5.14495 9.144 5.53695 9.048C5.93695 8.96 6.29695 8.816 6.61695 8.616C6.93695 8.408 7.19695 8.144 7.39695 7.824C7.60495 7.496 7.70895 7.104 7.70895 6.648C7.70895 6.224 7.62895 5.872 7.46895 5.592C7.31695 5.312 7.10895 5.08 6.84495 4.896C6.58895 4.712 6.29695 4.568 5.96895 4.464C5.64095 4.352 5.30495 4.256 4.96095 4.176C4.62495 4.096 4.29295 4.024 3.96495 3.96C3.63695 3.888 3.34095 3.8 3.07695 3.696C2.82095 3.592 2.61295 3.46 2.45295 3.3C2.30095 3.132 2.22495 2.916 2.22495 2.652C2.22495 2.372 2.27695 2.14 2.38095 1.956C2.49295 1.764 2.63695 1.612 2.81295 1.5C2.99695 1.388 3.20495 1.308 3.43695 1.26C3.66895 1.212 3.90495 1.188 4.14495 1.188C4.73695 1.188 5.22095 1.328 5.59695 1.608C5.98095 1.88 6.20495 2.324 6.26895 2.94ZM9.6702 5.904C9.6702 5.528 9.7182 5.196 9.8142 4.908C9.9182 4.612 10.0582 4.364 10.2342 4.164C10.4102 3.964 10.6142 3.812 10.8462 3.708C11.0862 3.604 11.3382 3.552 11.6022 3.552C11.8662 3.552 12.1142 3.604 12.3462 3.708C12.5862 3.812 12.7942 3.964 12.9702 4.164C13.1462 4.364 13.2822 4.612 13.3782 4.908C13.4822 5.196 13.5342 5.528 13.5342 5.904C13.5342 6.28 13.4822 6.616 13.3782 6.912C13.2822 7.2 13.1462 7.444 12.9702 7.644C12.7942 7.836 12.5862 7.984 12.3462 8.088C12.1142 8.192 11.8662 8.244 11.6022 8.244C11.3382 8.244 11.0862 8.192 10.8462 8.088C10.6142 7.984 10.4102 7.836 10.2342 7.644C10.0582 7.444 9.9182 7.2 9.8142 6.912C9.7182 6.616 9.6702 6.28 9.6702 5.904ZM8.5902 5.904C8.5902 6.36 8.6542 6.784 8.7822 7.176C8.9102 7.568 9.1022 7.912 9.3582 8.208C9.6142 8.496 9.9302 8.724 10.3062 8.892C10.6822 9.052 11.1142 9.132 11.6022 9.132C12.0982 9.132 12.5302 9.052 12.8982 8.892C13.2742 8.724 13.5902 8.496 13.8462 8.208C14.1022 7.912 14.2942 7.568 14.4222 7.176C14.5502 6.784 14.6142 6.36 14.6142 5.904C14.6142 5.448 14.5502 5.024 14.4222 4.632C14.2942 4.232 14.1022 3.888 13.8462 3.6C13.5902 3.304 13.2742 3.072 12.8982 2.904C12.5302 2.736 12.0982 2.652 11.6022 2.652C11.1142 2.652 10.6822 2.736 10.3062 2.904C9.9302 3.072 9.6142 3.304 9.3582 3.6C9.1022 3.888 8.9102 4.232 8.7822 4.632C8.6542 5.024 8.5902 5.448 8.5902 5.904ZM15.7808 2.796V9H16.8008V6.24C16.8008 5.84 16.8408 5.488 16.9208 5.184C17.0008 4.872 17.1288 4.608 17.3048 4.392C17.4808 4.176 17.7128 4.012 18.0008 3.9C18.2888 3.788 18.6368 3.732 19.0448 3.732V2.652C18.4928 2.636 18.0368 2.748 17.6768 2.988C17.3168 3.228 17.0128 3.6 16.7648 4.104H16.7408V2.796H15.7808ZM21.2289 2.796V0.935999H20.2089V2.796H19.1529V3.696H20.2089V7.644C20.2089 7.932 20.2369 8.164 20.2929 8.34C20.3489 8.516 20.4329 8.652 20.5449 8.748C20.6649 8.844 20.8169 8.912 21.0009 8.952C21.1929 8.984 21.4209 9 21.6849 9H22.4649V8.1H21.9969C21.8369 8.1 21.7049 8.096 21.6009 8.088C21.5049 8.072 21.4289 8.044 21.3729 8.004C21.3169 7.964 21.2769 7.908 21.2529 7.836C21.2369 7.764 21.2289 7.668 21.2289 7.548V3.696H22.4649V2.796H21.2289ZM26.9739 0.431999V9H27.9939V8.172H28.0179C28.1299 8.356 28.2659 8.512 28.4259 8.64C28.5939 8.76 28.7699 8.856 28.9539 8.928C29.1379 9 29.3219 9.052 29.5059 9.084C29.6979 9.116 29.8699 9.132 30.0219 9.132C30.4939 9.132 30.9059 9.048 31.2579 8.88C31.6179 8.712 31.9139 8.484 32.1459 8.196C32.3859 7.9 32.5619 7.556 32.6739 7.164C32.7939 6.772 32.8539 6.356 32.8539 5.916C32.8539 5.476 32.7939 5.06 32.6739 4.668C32.5539 4.276 32.3739 3.932 32.1339 3.636C31.9019 3.332 31.6059 3.092 31.2459 2.916C30.8939 2.74 30.4779 2.652 29.9979 2.652C29.5659 2.652 29.1699 2.732 28.8099 2.892C28.4499 3.044 28.1859 3.292 28.0179 3.636H27.9939V0.431999H26.9739ZM31.7739 5.844C31.7739 6.148 31.7419 6.444 31.6779 6.732C31.6139 7.02 31.5099 7.276 31.3659 7.5C31.2219 7.724 31.0299 7.904 30.7899 8.04C30.5579 8.176 30.2659 8.244 29.9139 8.244C29.5619 8.244 29.2619 8.18 29.0139 8.052C28.7659 7.916 28.5619 7.74 28.4019 7.524C28.2499 7.308 28.1379 7.06 28.0659 6.78C27.9939 6.492 27.9579 6.196 27.9579 5.892C27.9579 5.604 27.9899 5.32 28.0539 5.04C28.1259 4.76 28.2379 4.512 28.3899 4.296C28.5419 4.072 28.7379 3.892 28.9779 3.756C29.2179 3.62 29.5099 3.552 29.8539 3.552C30.1819 3.552 30.4659 3.616 30.7059 3.744C30.9539 3.872 31.1539 4.044 31.3059 4.26C31.4659 4.476 31.5819 4.724 31.6539 5.004C31.7339 5.276 31.7739 5.556 31.7739 5.844ZM36.4872 9.828C36.3672 10.132 36.2472 10.388 36.1272 10.596C36.0152 10.804 35.8872 10.972 35.7432 11.1C35.6072 11.236 35.4512 11.332 35.2752 11.388C35.1072 11.452 34.9112 11.484 34.6872 11.484C34.5672 11.484 34.4472 11.476 34.3272 11.46C34.2072 11.444 34.0912 11.416 33.9792 11.376V10.44C34.0672 10.48 34.1672 10.512 34.2792 10.536C34.3992 10.568 34.4992 10.584 34.5792 10.584C34.7872 10.584 34.9592 10.532 35.0952 10.428C35.2392 10.332 35.3472 10.192 35.4192 10.008L35.8392 8.964L33.3792 2.796H34.5312L36.3432 7.872H36.3672L38.1072 2.796H39.1872L36.4872 9.828ZM41.6112 4.128V2.796H40.2792V4.128H41.6112ZM40.2792 7.668V9H41.6112V7.668H40.2792Z" fill="#707070"/>
</svg>
