<svg width="21" height="12" viewBox="0 0 21 12" fill="none" xmlns="http://www.w3.org/2000/svg">
<path d="M2.88806 2.016V9H4.77206V2.016H7.34006V0.431999H0.320063V2.016H2.88806ZM8.32406 5.904C8.32406 5.656 8.34806 5.412 8.39606 5.172C8.44406 4.932 8.52406 4.72 8.63606 4.536C8.75606 4.352 8.91206 4.204 9.10406 4.092C9.29606 3.972 9.53606 3.912 9.82406 3.912C10.1121 3.912 10.3521 3.972 10.5441 4.092C10.7441 4.204 10.9001 4.352 11.0121 4.536C11.1321 4.72 11.2161 4.932 11.2641 5.172C11.3121 5.412 11.3361 5.656 11.3361 5.904C11.3361 6.152 11.3121 6.396 11.2641 6.636C11.2161 6.868 11.1321 7.08 11.0121 7.272C10.9001 7.456 10.7441 7.604 10.5441 7.716C10.3521 7.828 10.1121 7.884 9.82406 7.884C9.53606 7.884 9.29606 7.828 9.10406 7.716C8.91206 7.604 8.75606 7.456 8.63606 7.272C8.52406 7.08 8.44406 6.868 8.39606 6.636C8.34806 6.396 8.32406 6.152 8.32406 5.904ZM6.62006 5.904C6.62006 6.4 6.69606 6.848 6.84806 7.248C7.00006 7.648 7.21606 7.992 7.49606 8.28C7.77606 8.56 8.11206 8.776 8.50406 8.928C8.89606 9.08 9.33606 9.156 9.82406 9.156C10.3121 9.156 10.7521 9.08 11.1441 8.928C11.5441 8.776 11.8841 8.56 12.1641 8.28C12.4441 7.992 12.6601 7.648 12.8121 7.248C12.9641 6.848 13.0401 6.4 13.0401 5.904C13.0401 5.408 12.9641 4.96 12.8121 4.56C12.6601 4.152 12.4441 3.808 12.1641 3.528C11.8841 3.24 11.5441 3.02 11.1441 2.868C10.7521 2.708 10.3121 2.628 9.82406 2.628C9.33606 2.628 8.89606 2.708 8.50406 2.868C8.11206 3.02 7.77606 3.24 7.49606 3.528C7.21606 3.808 7.00006 4.152 6.84806 4.56C6.69606 4.96 6.62006 5.408 6.62006 5.904ZM17.28 7.884C17.008 7.884 16.776 7.828 16.584 7.716C16.392 7.604 16.236 7.46 16.116 7.284C16.004 7.1 15.92 6.888 15.864 6.648C15.816 6.408 15.792 6.164 15.792 5.916C15.792 5.66 15.816 5.412 15.864 5.172C15.912 4.932 15.992 4.72 16.104 4.536C16.224 4.352 16.376 4.204 16.56 4.092C16.752 3.972 16.988 3.912 17.268 3.912C17.54 3.912 17.768 3.972 17.952 4.092C18.144 4.204 18.3 4.356 18.42 4.548C18.54 4.732 18.624 4.944 18.672 5.184C18.728 5.424 18.756 5.668 18.756 5.916C18.756 6.164 18.732 6.408 18.684 6.648C18.636 6.888 18.552 7.1 18.432 7.284C18.32 7.46 18.168 7.604 17.976 7.716C17.792 7.828 17.56 7.884 17.28 7.884ZM14.148 2.796V11.172H15.852V8.232H15.876C16.084 8.536 16.348 8.768 16.668 8.928C16.996 9.08 17.352 9.156 17.736 9.156C18.192 9.156 18.588 9.068 18.924 8.892C19.268 8.716 19.552 8.48 19.776 8.184C20.008 7.888 20.18 7.548 20.292 7.164C20.404 6.78 20.46 6.38 20.46 5.964C20.46 5.524 20.404 5.104 20.292 4.704C20.18 4.296 20.008 3.94 19.776 3.636C19.544 3.332 19.252 3.088 18.9 2.904C18.548 2.72 18.128 2.628 17.64 2.628C17.256 2.628 16.904 2.704 16.584 2.856C16.264 3.008 16 3.252 15.792 3.588H15.768V2.796H14.148Z" fill="#191919"/>
</svg>
