<svg width="13" height="10" viewBox="0 0 13 10" fill="none" xmlns="http://www.w3.org/2000/svg">
<path d="M3.60403 9V0.491999H2.82403C2.76803 0.812 2.66403 1.076 2.51203 1.284C2.36003 1.492 2.17203 1.656 1.94803 1.776C1.73203 1.896 1.48803 1.98 1.21603 2.028C0.944031 2.068 0.664031 2.088 0.376031 2.088V2.904H2.58403V9H3.60403ZM7.608 6.948H6.588C6.652 7.684 6.92 8.232 7.392 8.592C7.864 8.952 8.456 9.132 9.168 9.132C10.2 9.132 10.948 8.74 11.412 7.956C11.884 7.164 12.12 6.032 12.12 4.56C12.12 3.752 12.04 3.088 11.88 2.568C11.728 2.04 11.52 1.624 11.256 1.32C10.992 1.016 10.684 0.804 10.332 0.684C9.98 0.556 9.604 0.491999 9.204 0.491999C8.796 0.491999 8.42 0.559999 8.076 0.696C7.732 0.832 7.436 1.024 7.188 1.272C6.94 1.512 6.748 1.804 6.612 2.148C6.476 2.484 6.408 2.856 6.408 3.264C6.408 3.68 6.464 4.064 6.576 4.416C6.696 4.768 6.868 5.068 7.092 5.316C7.324 5.564 7.608 5.76 7.944 5.904C8.28 6.04 8.664 6.108 9.096 6.108C9.512 6.108 9.896 6.004 10.248 5.796C10.6 5.58 10.872 5.292 11.064 4.932L11.088 4.956C11.056 6.068 10.884 6.896 10.572 7.44C10.26 7.976 9.792 8.244 9.168 8.244C8.76 8.244 8.408 8.132 8.112 7.908C7.816 7.684 7.648 7.364 7.608 6.948ZM10.908 3.336C10.908 3.584 10.868 3.824 10.788 4.056C10.708 4.28 10.592 4.48 10.44 4.656C10.288 4.824 10.104 4.96 9.888 5.064C9.672 5.16 9.432 5.208 9.168 5.208C8.92 5.208 8.692 5.16 8.484 5.064C8.284 4.96 8.108 4.824 7.956 4.656C7.812 4.488 7.696 4.296 7.608 4.08C7.528 3.864 7.488 3.64 7.488 3.408C7.488 3.144 7.516 2.892 7.572 2.652C7.636 2.412 7.732 2.2 7.86 2.016C7.996 1.824 8.168 1.672 8.376 1.56C8.592 1.448 8.852 1.392 9.156 1.392C9.444 1.392 9.696 1.444 9.912 1.548C10.128 1.652 10.308 1.796 10.452 1.98C10.604 2.156 10.716 2.36 10.788 2.592C10.868 2.824 10.908 3.072 10.908 3.336Z" fill="white"/>
</svg>
