<svg width="64" height="12" viewBox="0 0 64 12" fill="none" xmlns="http://www.w3.org/2000/svg">
<path d="M0.0166407 0.431999V9H1.09664V1.872H1.12064L3.79664 9H4.76864L7.44464 1.872H7.46864V9H8.54864V0.431999H6.98864L4.27664 7.632L1.57664 0.431999H0.0166407ZM12.7138 9.828C12.5938 10.132 12.4738 10.388 12.3538 10.596C12.2418 10.804 12.1138 10.972 11.9698 11.1C11.8338 11.236 11.6778 11.332 11.5018 11.388C11.3338 11.452 11.1378 11.484 10.9138 11.484C10.7938 11.484 10.6738 11.476 10.5538 11.46C10.4338 11.444 10.3178 11.416 10.2058 11.376V10.44C10.2938 10.48 10.3938 10.512 10.5058 10.536C10.6258 10.568 10.7258 10.584 10.8058 10.584C11.0138 10.584 11.1858 10.532 11.3218 10.428C11.4658 10.332 11.5738 10.192 11.6458 10.008L12.0658 8.964L9.60577 2.796H10.7578L12.5698 7.872H12.5938L14.3338 2.796H15.4138L12.7138 9.828ZM19.7736 0.431999V9H20.8536V2.124H20.8776L25.3536 9H26.6016V0.431999H25.5216V7.38H25.4976L20.9856 0.431999H19.7736ZM32.5858 5.304H29.0218C29.0378 5.064 29.0898 4.84 29.1778 4.632C29.2658 4.416 29.3858 4.228 29.5378 4.068C29.6898 3.908 29.8698 3.784 30.0778 3.696C30.2938 3.6 30.5338 3.552 30.7978 3.552C31.0538 3.552 31.2858 3.6 31.4938 3.696C31.7098 3.784 31.8938 3.908 32.0458 4.068C32.2058 4.22 32.3298 4.404 32.4178 4.62C32.5138 4.836 32.5698 5.064 32.5858 5.304ZM33.5698 7.032H32.5618C32.4738 7.44 32.2898 7.744 32.0098 7.944C31.7378 8.144 31.3858 8.244 30.9538 8.244C30.6178 8.244 30.3258 8.188 30.0778 8.076C29.8298 7.964 29.6258 7.816 29.4658 7.632C29.3058 7.44 29.1898 7.224 29.1178 6.984C29.0458 6.736 29.0138 6.476 29.0218 6.204H33.6658C33.6818 5.828 33.6458 5.432 33.5578 5.016C33.4778 4.6 33.3258 4.216 33.1018 3.864C32.8858 3.512 32.5938 3.224 32.2258 3C31.8658 2.768 31.4098 2.652 30.8578 2.652C30.4338 2.652 30.0418 2.732 29.6818 2.892C29.3298 3.052 29.0218 3.276 28.7578 3.564C28.5018 3.852 28.3018 4.192 28.1578 4.584C28.0138 4.976 27.9418 5.408 27.9418 5.88C27.9578 6.352 28.0258 6.788 28.1458 7.188C28.2738 7.588 28.4618 7.932 28.7098 8.22C28.9578 8.508 29.2618 8.732 29.6218 8.892C29.9898 9.052 30.4218 9.132 30.9178 9.132C31.6218 9.132 32.2058 8.956 32.6698 8.604C33.1338 8.252 33.4338 7.728 33.5698 7.032ZM36.1391 2.796V0.935999H35.1191V2.796H34.0631V3.696H35.1191V7.644C35.1191 7.932 35.1471 8.164 35.2031 8.34C35.2591 8.516 35.3431 8.652 35.4551 8.748C35.5751 8.844 35.7271 8.912 35.9111 8.952C36.1031 8.984 36.3311 9 36.5951 9H37.3751V8.1H36.9071C36.7471 8.1 36.6151 8.096 36.5111 8.088C36.4151 8.072 36.3391 8.044 36.2831 8.004C36.2271 7.964 36.1871 7.908 36.1631 7.836C36.1471 7.764 36.1391 7.668 36.1391 7.548V3.696H37.3751V2.796H36.1391ZM44.6522 9L46.6322 2.796H45.5762L44.1842 7.872H44.1602L42.8642 2.796H41.7482L40.5002 7.872H40.4762L39.0722 2.796H37.9442L39.9362 9H41.0402L42.2882 4.068H42.3122L43.5722 9H44.6522ZM48.346 5.904C48.346 5.528 48.394 5.196 48.49 4.908C48.594 4.612 48.734 4.364 48.91 4.164C49.086 3.964 49.29 3.812 49.522 3.708C49.762 3.604 50.014 3.552 50.278 3.552C50.542 3.552 50.79 3.604 51.022 3.708C51.262 3.812 51.47 3.964 51.646 4.164C51.822 4.364 51.958 4.612 52.054 4.908C52.158 5.196 52.21 5.528 52.21 5.904C52.21 6.28 52.158 6.616 52.054 6.912C51.958 7.2 51.822 7.444 51.646 7.644C51.47 7.836 51.262 7.984 51.022 8.088C50.79 8.192 50.542 8.244 50.278 8.244C50.014 8.244 49.762 8.192 49.522 8.088C49.29 7.984 49.086 7.836 48.91 7.644C48.734 7.444 48.594 7.2 48.49 6.912C48.394 6.616 48.346 6.28 48.346 5.904ZM47.266 5.904C47.266 6.36 47.33 6.784 47.458 7.176C47.586 7.568 47.778 7.912 48.034 8.208C48.29 8.496 48.606 8.724 48.982 8.892C49.358 9.052 49.79 9.132 50.278 9.132C50.774 9.132 51.206 9.052 51.574 8.892C51.95 8.724 52.266 8.496 52.522 8.208C52.778 7.912 52.97 7.568 53.098 7.176C53.226 6.784 53.29 6.36 53.29 5.904C53.29 5.448 53.226 5.024 53.098 4.632C52.97 4.232 52.778 3.888 52.522 3.6C52.266 3.304 51.95 3.072 51.574 2.904C51.206 2.736 50.774 2.652 50.278 2.652C49.79 2.652 49.358 2.736 48.982 2.904C48.606 3.072 48.29 3.304 48.034 3.6C47.778 3.888 47.586 4.232 47.458 4.632C47.33 5.024 47.266 5.448 47.266 5.904ZM54.4566 2.796V9H55.4766V6.24C55.4766 5.84 55.5166 5.488 55.5966 5.184C55.6766 4.872 55.8046 4.608 55.9806 4.392C56.1566 4.176 56.3886 4.012 56.6766 3.9C56.9646 3.788 57.3126 3.732 57.7206 3.732V2.652C57.1686 2.636 56.7126 2.748 56.3526 2.988C55.9926 3.228 55.6886 3.6 55.4406 4.104H55.4166V2.796H54.4566ZM58.5487 0.431999V9H59.5687V6.648L60.5287 5.76L62.6527 9H63.9487L61.3087 5.052L63.7687 2.796H62.4007L59.5687 5.508V0.431999H58.5487Z" fill="#C9D1D7"/>
</svg>
