<svg width="67" height="10" viewBox="0 0 67 10" fill="none" xmlns="http://www.w3.org/2000/svg">
<path d="M0.373219 0.431999V9H1.45322V2.124H1.47722L5.95322 9H7.20122V0.431999H6.12122V7.38H6.09722L1.58522 0.431999H0.373219ZM9.62138 5.904C9.62138 5.528 9.66938 5.196 9.76538 4.908C9.86938 4.612 10.0094 4.364 10.1854 4.164C10.3614 3.964 10.5654 3.812 10.7974 3.708C11.0374 3.604 11.2894 3.552 11.5534 3.552C11.8174 3.552 12.0654 3.604 12.2974 3.708C12.5374 3.812 12.7454 3.964 12.9214 4.164C13.0974 4.364 13.2334 4.612 13.3294 4.908C13.4334 5.196 13.4854 5.528 13.4854 5.904C13.4854 6.28 13.4334 6.616 13.3294 6.912C13.2334 7.2 13.0974 7.444 12.9214 7.644C12.7454 7.836 12.5374 7.984 12.2974 8.088C12.0654 8.192 11.8174 8.244 11.5534 8.244C11.2894 8.244 11.0374 8.192 10.7974 8.088C10.5654 7.984 10.3614 7.836 10.1854 7.644C10.0094 7.444 9.86938 7.2 9.76538 6.912C9.66938 6.616 9.62138 6.28 9.62138 5.904ZM8.54138 5.904C8.54138 6.36 8.60538 6.784 8.73338 7.176C8.86138 7.568 9.05338 7.912 9.30938 8.208C9.56538 8.496 9.88138 8.724 10.2574 8.892C10.6334 9.052 11.0654 9.132 11.5534 9.132C12.0494 9.132 12.4814 9.052 12.8494 8.892C13.2254 8.724 13.5414 8.496 13.7974 8.208C14.0534 7.912 14.2454 7.568 14.3734 7.176C14.5014 6.784 14.5654 6.36 14.5654 5.904C14.5654 5.448 14.5014 5.024 14.3734 4.632C14.2454 4.232 14.0534 3.888 13.7974 3.6C13.5414 3.304 13.2254 3.072 12.8494 2.904C12.4814 2.736 12.0494 2.652 11.5534 2.652C11.0654 2.652 10.6334 2.736 10.2574 2.904C9.88138 3.072 9.56538 3.304 9.30938 3.6C9.05338 3.888 8.86138 4.232 8.73338 4.632C8.60538 5.024 8.54138 5.448 8.54138 5.904ZM17.184 2.796V0.935999H16.164V2.796H15.108V3.696H16.164V7.644C16.164 7.932 16.192 8.164 16.248 8.34C16.304 8.516 16.388 8.652 16.5 8.748C16.62 8.844 16.772 8.912 16.956 8.952C17.148 8.984 17.376 9 17.64 9H18.42V8.1H17.952C17.792 8.1 17.66 8.096 17.556 8.088C17.46 8.072 17.384 8.044 17.328 8.004C17.272 7.964 17.232 7.908 17.208 7.836C17.192 7.764 17.184 7.668 17.184 7.548V3.696H18.42V2.796H17.184ZM20.6332 1.68V0.431999H19.6132V1.68H20.6332ZM19.6132 2.796V9H20.6332V2.796H19.6132ZM25.8253 9H26.8453V2.796H25.8253V9ZM25.8253 1.68H26.8453V0.431999H25.8253V1.68ZM22.6333 3.696V9H23.6533V3.696H24.8533V2.796H23.6533V1.932C23.6533 1.66 23.7213 1.476 23.8573 1.38C23.9933 1.284 24.1853 1.236 24.4333 1.236C24.5213 1.236 24.6173 1.244 24.7213 1.26C24.8253 1.268 24.9213 1.288 25.0093 1.32V0.431999C24.9133 0.399999 24.8013 0.375999 24.6733 0.36C24.5533 0.343999 24.4453 0.335999 24.3493 0.335999C23.7893 0.335999 23.3613 0.467999 23.0653 0.732C22.7773 0.988 22.6333 1.368 22.6333 1.872V2.796H21.5893V3.696H22.6333ZM32.6363 4.788H33.6923C33.6523 4.42 33.5563 4.104 33.4043 3.84C33.2523 3.568 33.0563 3.344 32.8163 3.168C32.5843 2.992 32.3123 2.864 32.0003 2.784C31.6963 2.696 31.3683 2.652 31.0163 2.652C30.5283 2.652 30.1003 2.74 29.7323 2.916C29.3643 3.084 29.0563 3.32 28.8083 3.624C28.5683 3.92 28.3883 4.272 28.2683 4.68C28.1483 5.08 28.0883 5.512 28.0883 5.976C28.0883 6.44 28.1483 6.868 28.2683 7.26C28.3963 7.644 28.5803 7.976 28.8203 8.256C29.0683 8.536 29.3723 8.752 29.7323 8.904C30.1003 9.056 30.5203 9.132 30.9923 9.132C31.7843 9.132 32.4083 8.924 32.8643 8.508C33.3283 8.092 33.6163 7.5 33.7283 6.732H32.6843C32.6203 7.212 32.4443 7.584 32.1563 7.848C31.8763 8.112 31.4843 8.244 30.9803 8.244C30.6603 8.244 30.3843 8.18 30.1523 8.052C29.9203 7.924 29.7323 7.756 29.5883 7.548C29.4443 7.332 29.3363 7.088 29.2643 6.816C29.2003 6.544 29.1683 6.264 29.1683 5.976C29.1683 5.664 29.2003 5.364 29.2643 5.076C29.3283 4.78 29.4323 4.52 29.5763 4.296C29.7283 4.072 29.9283 3.892 30.1763 3.756C30.4243 3.62 30.7323 3.552 31.1003 3.552C31.5323 3.552 31.8763 3.66 32.1323 3.876C32.3883 4.092 32.5563 4.396 32.6363 4.788ZM40.3656 8.976C40.1896 9.08 39.9456 9.132 39.6336 9.132C39.3696 9.132 39.1576 9.06 38.9976 8.916C38.8456 8.764 38.7696 8.52 38.7696 8.184C38.4896 8.52 38.1616 8.764 37.7856 8.916C37.4176 9.06 37.0176 9.132 36.5856 9.132C36.3056 9.132 36.0376 9.1 35.7816 9.036C35.5336 8.972 35.3176 8.872 35.1336 8.736C34.9496 8.6 34.8016 8.424 34.6896 8.208C34.5856 7.984 34.5336 7.716 34.5336 7.404C34.5336 7.052 34.5936 6.764 34.7136 6.54C34.8336 6.316 34.9896 6.136 35.1816 6C35.3816 5.856 35.6056 5.748 35.8536 5.676C36.1096 5.604 36.3696 5.544 36.6336 5.496C36.9136 5.44 37.1776 5.4 37.4256 5.376C37.6816 5.344 37.9056 5.304 38.0976 5.256C38.2896 5.2 38.4416 5.124 38.5536 5.028C38.6656 4.924 38.7216 4.776 38.7216 4.584C38.7216 4.36 38.6776 4.18 38.5896 4.044C38.5096 3.908 38.4016 3.804 38.2656 3.732C38.1376 3.66 37.9896 3.612 37.8216 3.588C37.6616 3.564 37.5016 3.552 37.3416 3.552C36.9096 3.552 36.5496 3.636 36.2616 3.804C35.9736 3.964 35.8176 4.272 35.7936 4.728H34.7736C34.7896 4.344 34.8696 4.02 35.0136 3.756C35.1576 3.492 35.3496 3.28 35.5896 3.12C35.8296 2.952 36.1016 2.832 36.4056 2.76C36.7176 2.688 37.0496 2.652 37.4016 2.652C37.6816 2.652 37.9576 2.672 38.2296 2.712C38.5096 2.752 38.7616 2.836 38.9856 2.964C39.2096 3.084 39.3896 3.256 39.5256 3.48C39.6616 3.704 39.7296 3.996 39.7296 4.356V7.548C39.7296 7.788 39.7416 7.964 39.7656 8.076C39.7976 8.188 39.8936 8.244 40.0536 8.244C40.1416 8.244 40.2456 8.224 40.3656 8.184V8.976ZM38.7096 5.796C38.5816 5.892 38.4136 5.964 38.2056 6.012C37.9976 6.052 37.7776 6.088 37.5456 6.12C37.3216 6.144 37.0936 6.176 36.8616 6.216C36.6296 6.248 36.4216 6.304 36.2376 6.384C36.0536 6.464 35.9016 6.58 35.7816 6.732C35.6696 6.876 35.6136 7.076 35.6136 7.332C35.6136 7.5 35.6456 7.644 35.7096 7.764C35.7816 7.876 35.8696 7.968 35.9736 8.04C36.0856 8.112 36.2136 8.164 36.3576 8.196C36.5016 8.228 36.6536 8.244 36.8136 8.244C37.1496 8.244 37.4376 8.2 37.6776 8.112C37.9176 8.016 38.1136 7.9 38.2656 7.764C38.4176 7.62 38.5296 7.468 38.6016 7.308C38.6736 7.14 38.7096 6.984 38.7096 6.84V5.796ZM42.7309 2.796V0.935999H41.7109V2.796H40.6549V3.696H41.7109V7.644C41.7109 7.932 41.7389 8.164 41.7949 8.34C41.8509 8.516 41.9349 8.652 42.0469 8.748C42.1669 8.844 42.3189 8.912 42.5029 8.952C42.6949 8.984 42.9229 9 43.1869 9H43.9669V8.1H43.4989C43.3389 8.1 43.2069 8.096 43.1029 8.088C43.0069 8.072 42.9309 8.044 42.8749 8.004C42.8189 7.964 42.7789 7.908 42.7549 7.836C42.7389 7.764 42.7309 7.668 42.7309 7.548V3.696H43.9669V2.796H42.7309ZM46.18 1.68V0.431999H45.16V1.68H46.18ZM45.16 2.796V9H46.18V2.796H45.16ZM48.5042 5.904C48.5042 5.528 48.5522 5.196 48.6482 4.908C48.7522 4.612 48.8922 4.364 49.0682 4.164C49.2442 3.964 49.4482 3.812 49.6802 3.708C49.9202 3.604 50.1722 3.552 50.4362 3.552C50.7002 3.552 50.9482 3.604 51.1802 3.708C51.4202 3.812 51.6282 3.964 51.8042 4.164C51.9802 4.364 52.1162 4.612 52.2122 4.908C52.3162 5.196 52.3682 5.528 52.3682 5.904C52.3682 6.28 52.3162 6.616 52.2122 6.912C52.1162 7.2 51.9802 7.444 51.8042 7.644C51.6282 7.836 51.4202 7.984 51.1802 8.088C50.9482 8.192 50.7002 8.244 50.4362 8.244C50.1722 8.244 49.9202 8.192 49.6802 8.088C49.4482 7.984 49.2442 7.836 49.0682 7.644C48.8922 7.444 48.7522 7.2 48.6482 6.912C48.5522 6.616 48.5042 6.28 48.5042 5.904ZM47.4242 5.904C47.4242 6.36 47.4882 6.784 47.6162 7.176C47.7442 7.568 47.9362 7.912 48.1922 8.208C48.4482 8.496 48.7642 8.724 49.1402 8.892C49.5162 9.052 49.9482 9.132 50.4362 9.132C50.9322 9.132 51.3642 9.052 51.7322 8.892C52.1082 8.724 52.4242 8.496 52.6802 8.208C52.9362 7.912 53.1282 7.568 53.2562 7.176C53.3842 6.784 53.4482 6.36 53.4482 5.904C53.4482 5.448 53.3842 5.024 53.2562 4.632C53.1282 4.232 52.9362 3.888 52.6802 3.6C52.4242 3.304 52.1082 3.072 51.7322 2.904C51.3642 2.736 50.9322 2.652 50.4362 2.652C49.9482 2.652 49.5162 2.736 49.1402 2.904C48.7642 3.072 48.4482 3.304 48.1922 3.6C47.9362 3.888 47.7442 4.232 47.6162 4.632C47.4882 5.024 47.4242 5.448 47.4242 5.904ZM54.6508 2.796V9H55.6708V5.496C55.6708 5.216 55.7068 4.96 55.7788 4.728C55.8588 4.488 55.9748 4.28 56.1268 4.104C56.2788 3.928 56.4668 3.792 56.6908 3.696C56.9228 3.6 57.1948 3.552 57.5068 3.552C57.8988 3.552 58.2068 3.664 58.4308 3.888C58.6548 4.112 58.7668 4.416 58.7668 4.8V9H59.7868V4.92C59.7868 4.584 59.7508 4.28 59.6788 4.008C59.6148 3.728 59.4988 3.488 59.3308 3.288C59.1628 3.088 58.9428 2.932 58.6708 2.82C58.3988 2.708 58.0588 2.652 57.6508 2.652C56.7308 2.652 56.0588 3.028 55.6348 3.78H55.6108V2.796H54.6508ZM61.9428 7.044H60.9228C60.9388 7.428 61.0188 7.756 61.1628 8.028C61.3068 8.292 61.4988 8.508 61.7388 8.676C61.9788 8.836 62.2548 8.952 62.5668 9.024C62.8788 9.096 63.2068 9.132 63.5508 9.132C63.8628 9.132 64.1748 9.1 64.4868 9.036C64.8068 8.98 65.0908 8.876 65.3388 8.724C65.5948 8.572 65.7988 8.372 65.9508 8.124C66.1108 7.876 66.1908 7.564 66.1908 7.188C66.1908 6.892 66.1308 6.644 66.0108 6.444C65.8988 6.244 65.7468 6.08 65.5548 5.952C65.3708 5.816 65.1548 5.708 64.9068 5.628C64.6668 5.548 64.4188 5.48 64.1628 5.424C63.9228 5.368 63.6828 5.316 63.4428 5.268C63.2028 5.212 62.9868 5.148 62.7948 5.076C62.6028 4.996 62.4428 4.9 62.3148 4.788C62.1948 4.668 62.1348 4.52 62.1348 4.344C62.1348 4.184 62.1748 4.056 62.2548 3.96C62.3348 3.856 62.4388 3.776 62.5668 3.72C62.6948 3.656 62.8348 3.612 62.9868 3.588C63.1468 3.564 63.3028 3.552 63.4548 3.552C63.6228 3.552 63.7868 3.572 63.9468 3.612C64.1148 3.644 64.2668 3.7 64.4028 3.78C64.5388 3.86 64.6508 3.968 64.7388 4.104C64.8268 4.232 64.8788 4.396 64.8948 4.596H65.9148C65.8908 4.22 65.8108 3.908 65.6748 3.66C65.5388 3.404 65.3548 3.204 65.1228 3.06C64.8988 2.908 64.6388 2.804 64.3428 2.748C64.0468 2.684 63.7228 2.652 63.3708 2.652C63.0988 2.652 62.8228 2.688 62.5428 2.76C62.2708 2.824 62.0228 2.928 61.7988 3.072C61.5828 3.208 61.4028 3.388 61.2588 3.612C61.1228 3.836 61.0548 4.104 61.0548 4.416C61.0548 4.816 61.1548 5.128 61.3548 5.352C61.5548 5.576 61.8028 5.752 62.0988 5.88C62.4028 6 62.7308 6.096 63.0828 6.168C63.4348 6.232 63.7588 6.308 64.0548 6.396C64.3588 6.476 64.6108 6.584 64.8108 6.72C65.0108 6.856 65.1108 7.056 65.1108 7.32C65.1108 7.512 65.0628 7.672 64.9668 7.8C64.8708 7.92 64.7468 8.012 64.5948 8.076C64.4508 8.14 64.2908 8.184 64.1148 8.208C63.9388 8.232 63.7708 8.244 63.6108 8.244C63.4028 8.244 63.1988 8.224 62.9988 8.184C62.8068 8.144 62.6308 8.08 62.4708 7.992C62.3188 7.896 62.1948 7.772 62.0988 7.62C62.0028 7.46 61.9508 7.268 61.9428 7.044Z" fill="#C9D1D7"/>
</svg>
