<svg width="46" height="13" viewBox="0 0 46 13" fill="none" xmlns="http://www.w3.org/2000/svg">
<path d="M3.164 4.708V1.712H4.872C5.124 1.712 5.36667 1.73067 5.6 1.768C5.83333 1.80533 6.03867 1.88 6.216 1.992C6.39333 2.09467 6.53333 2.244 6.636 2.44C6.748 2.636 6.804 2.89267 6.804 3.21C6.804 3.52733 6.748 3.784 6.636 3.98C6.53333 4.176 6.39333 4.33 6.216 4.442C6.03867 4.54467 5.83333 4.61467 5.6 4.652C5.36667 4.68933 5.124 4.708 4.872 4.708H3.164ZM0.966 0.00399935V10H3.164V6.416H5.474C6.09933 6.416 6.63133 6.32733 7.07 6.15C7.50867 5.96333 7.86333 5.72067 8.134 5.422C8.414 5.12333 8.61467 4.78267 8.736 4.4C8.86667 4.008 8.932 3.61133 8.932 3.21C8.932 2.79933 8.86667 2.40267 8.736 2.02C8.61467 1.63733 8.414 1.29667 8.134 0.998C7.86333 0.699333 7.50867 0.461333 7.07 0.284C6.63133 0.0973329 6.09933 0.00399935 5.474 0.00399935H0.966ZM14.9659 5.604H11.7319C11.7412 5.464 11.7692 5.30533 11.8159 5.128C11.8719 4.95067 11.9606 4.78267 12.0819 4.624C12.2126 4.46533 12.3806 4.33467 12.5859 4.232C12.8006 4.12 13.0666 4.064 13.3839 4.064C13.8692 4.064 14.2286 4.19467 14.4619 4.456C14.7046 4.71733 14.8726 5.1 14.9659 5.604ZM11.7319 6.864H16.9539C16.9912 6.304 16.9446 5.76733 16.8139 5.254C16.6832 4.74067 16.4686 4.28333 16.1699 3.882C15.8806 3.48067 15.5072 3.16333 15.0499 2.93C14.5926 2.68733 14.0559 2.566 13.4399 2.566C12.8892 2.566 12.3852 2.664 11.9279 2.86C11.4799 3.056 11.0926 3.32667 10.7659 3.672C10.4392 4.008 10.1872 4.40933 10.0099 4.876C9.83256 5.34267 9.74389 5.84667 9.74389 6.388C9.74389 6.948 9.82789 7.46133 9.99589 7.928C10.1732 8.39467 10.4206 8.796 10.7379 9.132C11.0552 9.468 11.4426 9.72933 11.8999 9.916C12.3572 10.0933 12.8706 10.182 13.4399 10.182C14.2612 10.182 14.9612 9.99533 15.5399 9.622C16.1186 9.24867 16.5479 8.628 16.8279 7.76H15.0779C15.0126 7.984 14.8352 8.19867 14.5459 8.404C14.2566 8.6 13.9112 8.698 13.5099 8.698C12.9499 8.698 12.5206 8.55333 12.2219 8.264C11.9232 7.97467 11.7599 7.508 11.7319 6.864ZM19.897 6.388C19.897 6.09867 19.925 5.814 19.981 5.534C20.037 5.254 20.1303 5.00667 20.261 4.792C20.401 4.57733 20.583 4.40467 20.807 4.274C21.031 4.134 21.311 4.064 21.647 4.064C21.983 4.064 22.263 4.134 22.487 4.274C22.7203 4.40467 22.9023 4.57733 23.033 4.792C23.173 5.00667 23.271 5.254 23.327 5.534C23.383 5.814 23.411 6.09867 23.411 6.388C23.411 6.67733 23.383 6.962 23.327 7.242C23.271 7.51267 23.173 7.76 23.033 7.984C22.9023 8.19867 22.7203 8.37133 22.487 8.502C22.263 8.63267 21.983 8.698 21.647 8.698C21.311 8.698 21.031 8.63267 20.807 8.502C20.583 8.37133 20.401 8.19867 20.261 7.984C20.1303 7.76 20.037 7.51267 19.981 7.242C19.925 6.962 19.897 6.67733 19.897 6.388ZM17.909 6.388C17.909 6.96667 17.9976 7.48933 18.175 7.956C18.3523 8.42267 18.6043 8.824 18.931 9.16C19.2576 9.48667 19.6496 9.73867 20.107 9.916C20.5643 10.0933 21.0776 10.182 21.647 10.182C22.2163 10.182 22.7296 10.0933 23.187 9.916C23.6536 9.73867 24.0503 9.48667 24.377 9.16C24.7036 8.824 24.9556 8.42267 25.133 7.956C25.3103 7.48933 25.399 6.96667 25.399 6.388C25.399 5.80933 25.3103 5.28667 25.133 4.82C24.9556 4.344 24.7036 3.94267 24.377 3.616C24.0503 3.28 23.6536 3.02333 23.187 2.846C22.7296 2.65933 22.2163 2.566 21.647 2.566C21.0776 2.566 20.5643 2.65933 20.107 2.846C19.6496 3.02333 19.2576 3.28 18.931 3.616C18.6043 3.94267 18.3523 4.344 18.175 4.82C17.9976 5.28667 17.909 5.80933 17.909 6.388ZM30.3455 8.698C30.0282 8.698 29.7575 8.63267 29.5335 8.502C29.3095 8.37133 29.1275 8.20333 28.9875 7.998C28.8569 7.78333 28.7589 7.536 28.6935 7.256C28.6375 6.976 28.6095 6.69133 28.6095 6.402C28.6095 6.10333 28.6375 5.814 28.6935 5.534C28.7495 5.254 28.8429 5.00667 28.9735 4.792C29.1135 4.57733 29.2909 4.40467 29.5055 4.274C29.7295 4.134 30.0049 4.064 30.3315 4.064C30.6489 4.064 30.9149 4.134 31.1295 4.274C31.3535 4.40467 31.5355 4.582 31.6755 4.806C31.8155 5.02067 31.9135 5.268 31.9695 5.548C32.0349 5.828 32.0675 6.11267 32.0675 6.402C32.0675 6.69133 32.0395 6.976 31.9835 7.256C31.9275 7.536 31.8295 7.78333 31.6895 7.998C31.5589 8.20333 31.3815 8.37133 31.1575 8.502C30.9429 8.63267 30.6722 8.698 30.3455 8.698ZM26.6915 2.762V12.534H28.6795V9.104H28.7075C28.9502 9.45867 29.2582 9.72933 29.6315 9.916C30.0142 10.0933 30.4295 10.182 30.8775 10.182C31.4095 10.182 31.8715 10.0793 32.2635 9.874C32.6649 9.66867 32.9962 9.39333 33.2575 9.048C33.5282 8.70267 33.7289 8.306 33.8595 7.858C33.9902 7.41 34.0555 6.94333 34.0555 6.458C34.0555 5.94467 33.9902 5.45467 33.8595 4.988C33.7289 4.512 33.5282 4.09667 33.2575 3.742C32.9869 3.38733 32.6462 3.10267 32.2355 2.888C31.8249 2.67333 31.3349 2.566 30.7655 2.566C30.3175 2.566 29.9069 2.65467 29.5335 2.832C29.1602 3.00933 28.8522 3.294 28.6095 3.686H28.5815V2.762H26.6915ZM35.3061 0.00399935V10H37.2941V0.00399935H35.3061ZM43.7315 5.604H40.4975C40.5068 5.464 40.5348 5.30533 40.5815 5.128C40.6375 4.95067 40.7262 4.78267 40.8475 4.624C40.9782 4.46533 41.1462 4.33467 41.3515 4.232C41.5662 4.12 41.8322 4.064 42.1495 4.064C42.6348 4.064 42.9942 4.19467 43.2275 4.456C43.4702 4.71733 43.6382 5.1 43.7315 5.604ZM40.4975 6.864H45.7195C45.7568 6.304 45.7102 5.76733 45.5795 5.254C45.4488 4.74067 45.2342 4.28333 44.9355 3.882C44.6462 3.48067 44.2728 3.16333 43.8155 2.93C43.3582 2.68733 42.8215 2.566 42.2055 2.566C41.6548 2.566 41.1508 2.664 40.6935 2.86C40.2455 3.056 39.8582 3.32667 39.5315 3.672C39.2048 4.008 38.9528 4.40933 38.7755 4.876C38.5982 5.34267 38.5095 5.84667 38.5095 6.388C38.5095 6.948 38.5935 7.46133 38.7615 7.928C38.9388 8.39467 39.1862 8.796 39.5035 9.132C39.8208 9.468 40.2082 9.72933 40.6655 9.916C41.1228 10.0933 41.6362 10.182 42.2055 10.182C43.0268 10.182 43.7268 9.99533 44.3055 9.622C44.8842 9.24867 45.3135 8.628 45.5935 7.76H43.8435C43.7782 7.984 43.6008 8.19867 43.3115 8.404C43.0222 8.6 42.6768 8.698 42.2755 8.698C41.7155 8.698 41.2862 8.55333 40.9875 8.264C40.6888 7.97467 40.5255 7.508 40.4975 6.864Z" fill="#707070"/>
</svg>
