<svg width="43" height="12" viewBox="0 0 43 12" fill="none" xmlns="http://www.w3.org/2000/svg">
<path d="M6.874 3.93H8.134C8.11533 3.37933 8.008 2.908 7.812 2.516C7.62533 2.11467 7.364 1.78333 7.028 1.522C6.70133 1.26067 6.31867 1.06933 5.88 0.947999C5.44133 0.826666 4.96533 0.766 4.452 0.766C3.99467 0.766 3.54667 0.826666 3.108 0.947999C2.67867 1.06 2.29133 1.23733 1.946 1.48C1.61 1.71333 1.33933 2.01667 1.134 2.39C0.928667 2.754 0.826 3.188 0.826 3.692C0.826 4.14933 0.914667 4.532 1.092 4.84C1.27867 5.13867 1.52133 5.386 1.82 5.582C2.128 5.76867 2.47333 5.92267 2.856 6.044C3.23867 6.156 3.626 6.25867 4.018 6.352C4.41933 6.436 4.81133 6.52 5.194 6.604C5.57667 6.688 5.91733 6.8 6.216 6.94C6.524 7.07067 6.76667 7.24333 6.944 7.458C7.13067 7.67267 7.224 7.95267 7.224 8.298C7.224 8.662 7.14933 8.96067 7 9.194C6.85067 9.42733 6.65467 9.614 6.412 9.754C6.16933 9.88467 5.894 9.978 5.586 10.034C5.28733 10.09 4.98867 10.118 4.69 10.118C4.31667 10.118 3.95267 10.0713 3.598 9.978C3.24333 9.88467 2.93067 9.74 2.66 9.544C2.39867 9.348 2.184 9.10067 2.016 8.802C1.85733 8.494 1.778 8.13 1.778 7.71H0.518C0.518 8.31667 0.625333 8.844 0.84 9.292C1.064 9.73067 1.36267 10.0947 1.736 10.384C2.11867 10.664 2.55733 10.874 3.052 11.014C3.556 11.154 4.088 11.224 4.648 11.224C5.10533 11.224 5.56267 11.168 6.02 11.056C6.48667 10.9533 6.90667 10.7853 7.28 10.552C7.65333 10.3093 7.95667 10.0013 8.19 9.628C8.43267 9.24533 8.554 8.788 8.554 8.256C8.554 7.76133 8.46067 7.35067 8.274 7.024C8.09667 6.69733 7.854 6.42667 7.546 6.212C7.24733 5.99733 6.90667 5.82933 6.524 5.708C6.14133 5.57733 5.74933 5.46533 5.348 5.372C4.956 5.27867 4.56867 5.19467 4.186 5.12C3.80333 5.036 3.458 4.93333 3.15 4.812C2.85133 4.69067 2.60867 4.53667 2.422 4.35C2.24467 4.154 2.156 3.902 2.156 3.594C2.156 3.26733 2.21667 2.99667 2.338 2.782C2.46867 2.558 2.63667 2.38067 2.842 2.25C3.05667 2.11933 3.29933 2.026 3.57 1.97C3.84067 1.914 4.116 1.886 4.396 1.886C5.08667 1.886 5.65133 2.04933 6.09 2.376C6.538 2.69333 6.79933 3.21133 6.874 3.93ZM15.0001 6.688H10.8421C10.8608 6.408 10.9215 6.14667 11.0241 5.904C11.1268 5.652 11.2668 5.43267 11.4441 5.246C11.6215 5.05933 11.8315 4.91467 12.0741 4.812C12.3261 4.7 12.6061 4.644 12.9141 4.644C13.2128 4.644 13.4835 4.7 13.7261 4.812C13.9781 4.91467 14.1928 5.05933 14.3701 5.246C14.5568 5.42333 14.7015 5.638 14.8041 5.89C14.9161 6.142 14.9815 6.408 15.0001 6.688ZM16.1481 8.704H14.9721C14.8695 9.18 14.6548 9.53467 14.3281 9.768C14.0108 10.0013 13.6001 10.118 13.0961 10.118C12.7041 10.118 12.3635 10.0527 12.0741 9.922C11.7848 9.79133 11.5468 9.61867 11.3601 9.404C11.1735 9.18 11.0381 8.928 10.9541 8.648C10.8701 8.35867 10.8328 8.05533 10.8421 7.738H16.2601C16.2788 7.29933 16.2368 6.83733 16.1341 6.352C16.0408 5.86667 15.8635 5.41867 15.6021 5.008C15.3501 4.59733 15.0095 4.26133 14.5801 4C14.1601 3.72933 13.6281 3.594 12.9841 3.594C12.4895 3.594 12.0321 3.68733 11.6121 3.874C11.2015 4.06067 10.8421 4.322 10.5341 4.658C10.2355 4.994 10.0021 5.39067 9.83413 5.848C9.66613 6.30533 9.58213 6.80933 9.58213 7.36C9.60079 7.91067 9.68013 8.41933 9.82013 8.886C9.96946 9.35267 10.1888 9.754 10.4781 10.09C10.7675 10.426 11.1221 10.6873 11.5421 10.874C11.9715 11.0607 12.4755 11.154 13.0541 11.154C13.8755 11.154 14.5568 10.9487 15.0981 10.538C15.6395 10.1273 15.9895 9.516 16.1481 8.704ZM23.9057 10.972C23.7003 11.0933 23.4157 11.154 23.0517 11.154C22.7437 11.154 22.4963 11.07 22.3097 10.902C22.1323 10.7247 22.0437 10.44 22.0437 10.048C21.717 10.44 21.3343 10.7247 20.8957 10.902C20.4663 11.07 19.9997 11.154 19.4957 11.154C19.169 11.154 18.8563 11.1167 18.5577 11.042C18.2683 10.9673 18.0163 10.8507 17.8017 10.692C17.587 10.5333 17.4143 10.328 17.2837 10.076C17.1623 9.81467 17.1017 9.502 17.1017 9.138C17.1017 8.72733 17.1717 8.39133 17.3117 8.13C17.4517 7.86867 17.6337 7.65867 17.8577 7.5C18.091 7.332 18.3523 7.206 18.6417 7.122C18.9403 7.038 19.2437 6.968 19.5517 6.912C19.8783 6.84667 20.1863 6.8 20.4757 6.772C20.7743 6.73467 21.0357 6.688 21.2597 6.632C21.4837 6.56667 21.661 6.478 21.7917 6.366C21.9223 6.24467 21.9877 6.072 21.9877 5.848C21.9877 5.58667 21.9363 5.37667 21.8337 5.218C21.7403 5.05933 21.6143 4.938 21.4557 4.854C21.3063 4.77 21.1337 4.714 20.9377 4.686C20.751 4.658 20.5643 4.644 20.3777 4.644C19.8737 4.644 19.4537 4.742 19.1177 4.938C18.7817 5.12467 18.5997 5.484 18.5717 6.016H17.3817C17.4003 5.568 17.4937 5.19 17.6617 4.882C17.8297 4.574 18.0537 4.32667 18.3337 4.14C18.6137 3.944 18.931 3.804 19.2857 3.72C19.6497 3.636 20.037 3.594 20.4477 3.594C20.7743 3.594 21.0963 3.61733 21.4137 3.664C21.7403 3.71067 22.0343 3.80867 22.2957 3.958C22.557 4.098 22.767 4.29867 22.9257 4.56C23.0843 4.82133 23.1637 5.162 23.1637 5.582V9.306C23.1637 9.586 23.1777 9.79133 23.2057 9.922C23.243 10.0527 23.355 10.118 23.5417 10.118C23.6443 10.118 23.7657 10.0947 23.9057 10.048V10.972ZM21.9737 7.262C21.8243 7.374 21.6283 7.458 21.3857 7.514C21.143 7.56067 20.8863 7.60267 20.6157 7.64C20.3543 7.668 20.0883 7.70533 19.8177 7.752C19.547 7.78933 19.3043 7.85467 19.0897 7.948C18.875 8.04133 18.6977 8.17667 18.5577 8.354C18.427 8.522 18.3617 8.75533 18.3617 9.054C18.3617 9.25 18.399 9.418 18.4737 9.558C18.5577 9.68867 18.6603 9.796 18.7817 9.88C18.9123 9.964 19.0617 10.0247 19.2297 10.062C19.3977 10.0993 19.575 10.118 19.7617 10.118C20.1537 10.118 20.4897 10.0667 20.7697 9.964C21.0497 9.852 21.2783 9.71667 21.4557 9.558C21.633 9.39 21.7637 9.21267 21.8477 9.026C21.9317 8.83 21.9737 8.648 21.9737 8.48V7.262ZM24.9712 3.762V11H26.1612V7.78C26.1612 7.31333 26.2079 6.90267 26.3012 6.548C26.3945 6.184 26.5439 5.876 26.7492 5.624C26.9545 5.372 27.2252 5.18067 27.5612 5.05C27.8972 4.91933 28.3032 4.854 28.7792 4.854V3.594C28.1352 3.57533 27.6032 3.706 27.1832 3.986C26.7632 4.266 26.4085 4.7 26.1192 5.288H26.0912V3.762H24.9712ZM34.3432 6.086H35.5752C35.5285 5.65667 35.4165 5.288 35.2392 4.98C35.0619 4.66267 34.8332 4.40133 34.5532 4.196C34.2825 3.99067 33.9652 3.84133 33.6012 3.748C33.2465 3.64533 32.8639 3.594 32.4532 3.594C31.8839 3.594 31.3845 3.69667 30.9552 3.902C30.5259 4.098 30.1665 4.37333 29.8772 4.728C29.5972 5.07333 29.3872 5.484 29.2472 5.96C29.1072 6.42667 29.0372 6.93067 29.0372 7.472C29.0372 8.01333 29.1072 8.51267 29.2472 8.97C29.3965 9.418 29.6112 9.80533 29.8912 10.132C30.1805 10.4587 30.5352 10.7107 30.9552 10.888C31.3845 11.0653 31.8745 11.154 32.4252 11.154C33.3492 11.154 34.0772 10.9113 34.6092 10.426C35.1505 9.94067 35.4865 9.25 35.6172 8.354H34.3992C34.3245 8.914 34.1192 9.348 33.7832 9.656C33.4565 9.964 32.9992 10.118 32.4112 10.118C32.0379 10.118 31.7159 10.0433 31.4452 9.894C31.1745 9.74467 30.9552 9.54867 30.7872 9.306C30.6192 9.054 30.4932 8.76933 30.4092 8.452C30.3345 8.13467 30.2972 7.808 30.2972 7.472C30.2972 7.108 30.3345 6.758 30.4092 6.422C30.4839 6.07667 30.6052 5.77333 30.7732 5.512C30.9505 5.25067 31.1839 5.04067 31.4732 4.882C31.7625 4.72333 32.1219 4.644 32.5512 4.644C33.0552 4.644 33.4565 4.77 33.7552 5.022C34.0539 5.274 34.2499 5.62867 34.3432 6.086ZM36.9487 1.004V11H38.1387V6.912C38.1387 6.58533 38.1807 6.28667 38.2647 6.016C38.3581 5.736 38.4934 5.49333 38.6707 5.288C38.8481 5.08267 39.0674 4.924 39.3287 4.812C39.5994 4.7 39.9167 4.644 40.2807 4.644C40.7381 4.644 41.0974 4.77467 41.3587 5.036C41.6201 5.29733 41.7507 5.652 41.7507 6.1V11H42.9407V6.24C42.9407 5.848 42.8987 5.49333 42.8147 5.176C42.7401 4.84933 42.6047 4.56933 42.4087 4.336C42.2127 4.10267 41.9561 3.92067 41.6387 3.79C41.3214 3.65933 40.9247 3.594 40.4487 3.594C40.2341 3.594 40.0101 3.61733 39.7767 3.664C39.5527 3.71067 39.3334 3.78533 39.1187 3.888C38.9134 3.98133 38.7267 4.10733 38.5587 4.266C38.3907 4.41533 38.2601 4.602 38.1667 4.826H38.1387V1.004H36.9487Z" fill="#2D3E49"/>
</svg>
