<svg width="97" height="25" viewBox="0 0 97 25" fill="none" xmlns="http://www.w3.org/2000/svg">
<path d="M0.12725 0.431999H7.06325V1.728H4.33925V9H2.83925V1.728H0.12725V0.431999ZM6.76297 2.796H8.04697V3.996H8.07097C8.11097 3.828 8.18697 3.664 8.29897 3.504C8.41897 3.344 8.55897 3.2 8.71897 3.072C8.88697 2.936 9.07097 2.828 9.27097 2.748C9.47097 2.668 9.67497 2.628 9.88297 2.628C10.043 2.628 10.151 2.632 10.207 2.64C10.271 2.648 10.335 2.656 10.399 2.664V3.984C10.303 3.968 10.203 3.956 10.099 3.948C10.003 3.932 9.90697 3.924 9.81097 3.924C9.57897 3.924 9.35897 3.972 9.15097 4.068C8.95097 4.156 8.77497 4.292 8.62297 4.476C8.47097 4.652 8.35097 4.872 8.26297 5.136C8.17497 5.4 8.13097 5.704 8.13097 6.048V9H6.76297V2.796ZM10.2977 2.796H11.7977L13.4177 7.428H13.4417L15.0137 2.796H16.4417L14.0297 9.336C13.9177 9.616 13.8057 9.884 13.6937 10.14C13.5897 10.396 13.4577 10.62 13.2977 10.812C13.1457 11.012 12.9537 11.168 12.7217 11.28C12.4897 11.4 12.1937 11.46 11.8337 11.46C11.5137 11.46 11.1977 11.436 10.8857 11.388V10.236C10.9977 10.252 11.1057 10.268 11.2097 10.284C11.3137 10.308 11.4217 10.32 11.5337 10.32C11.6937 10.32 11.8257 10.3 11.9297 10.26C12.0337 10.22 12.1177 10.16 12.1817 10.08C12.2537 10.008 12.3137 9.92 12.3617 9.816C12.4097 9.712 12.4537 9.592 12.4937 9.456L12.6497 8.976L10.2977 2.796ZM20.7362 0.431999H24.5162C25.1242 0.431999 25.6202 0.52 26.0042 0.696C26.3882 0.872 26.6842 1.092 26.8922 1.356C27.1002 1.62 27.2402 1.908 27.3122 2.22C27.3922 2.532 27.4322 2.82 27.4322 3.084C27.4322 3.348 27.3922 3.636 27.3122 3.948C27.2402 4.252 27.1002 4.536 26.8922 4.8C26.6842 5.064 26.3882 5.284 26.0042 5.46C25.6202 5.628 25.1242 5.712 24.5162 5.712H22.2362V9H20.7362V0.431999ZM22.2362 4.488H24.4322C24.6002 4.488 24.7722 4.464 24.9482 4.416C25.1242 4.368 25.2842 4.292 25.4282 4.188C25.5802 4.076 25.7002 3.932 25.7882 3.756C25.8842 3.572 25.9322 3.344 25.9322 3.072C25.9322 2.792 25.8922 2.56 25.8122 2.376C25.7322 2.192 25.6242 2.048 25.4882 1.944C25.3522 1.832 25.1962 1.756 25.0202 1.716C24.8442 1.676 24.6562 1.656 24.4562 1.656H22.2362V4.488ZM28.5481 2.796H29.8321V3.996H29.8561C29.8961 3.828 29.9721 3.664 30.0841 3.504C30.2041 3.344 30.3441 3.2 30.5041 3.072C30.6721 2.936 30.8561 2.828 31.0561 2.748C31.2561 2.668 31.4601 2.628 31.6681 2.628C31.8281 2.628 31.9361 2.632 31.9921 2.64C32.0561 2.648 32.1201 2.656 32.1841 2.664V3.984C32.0881 3.968 31.9881 3.956 31.8841 3.948C31.7881 3.932 31.6921 3.924 31.5961 3.924C31.3641 3.924 31.1441 3.972 30.9361 4.068C30.7361 4.156 30.5601 4.292 30.4081 4.476C30.2561 4.652 30.1361 4.872 30.0481 5.136C29.9601 5.4 29.9161 5.704 29.9161 6.048V9H28.5481V2.796ZM36.8159 5.352C36.7999 5.136 36.7519 4.928 36.6719 4.728C36.5999 4.528 36.4959 4.356 36.3599 4.212C36.2319 4.06 36.0719 3.94 35.8799 3.852C35.6959 3.756 35.4879 3.708 35.2559 3.708C35.0159 3.708 34.7959 3.752 34.5959 3.84C34.4039 3.92 34.2359 4.036 34.0919 4.188C33.9559 4.332 33.8439 4.504 33.7559 4.704C33.6759 4.904 33.6319 5.12 33.6239 5.352H36.8159ZM33.6239 6.252C33.6239 6.492 33.6559 6.724 33.7199 6.948C33.7919 7.172 33.8959 7.368 34.0319 7.536C34.1679 7.704 34.3399 7.84 34.5479 7.944C34.7559 8.04 35.0039 8.088 35.2919 8.088C35.6919 8.088 36.0119 8.004 36.2519 7.836C36.4999 7.66 36.6839 7.4 36.8039 7.056H38.0999C38.0279 7.392 37.9039 7.692 37.7279 7.956C37.5519 8.22 37.3399 8.444 37.0919 8.628C36.8439 8.804 36.5639 8.936 36.2519 9.024C35.9479 9.12 35.6279 9.168 35.2919 9.168C34.8039 9.168 34.3719 9.088 33.9959 8.928C33.6199 8.768 33.2999 8.544 33.0359 8.256C32.7799 7.968 32.5839 7.624 32.4479 7.224C32.3199 6.824 32.2559 6.384 32.2559 5.904C32.2559 5.464 32.3239 5.048 32.4599 4.656C32.6039 4.256 32.8039 3.908 33.0599 3.612C33.3239 3.308 33.6399 3.068 34.0079 2.892C34.3759 2.716 34.7919 2.628 35.2559 2.628C35.7439 2.628 36.1799 2.732 36.5639 2.94C36.9559 3.14 37.2799 3.408 37.5359 3.744C37.7919 4.08 37.9759 4.468 38.0879 4.908C38.2079 5.34 38.2399 5.788 38.1839 6.252H33.6239ZM39.2239 2.796H40.5199V3.66H40.5559C40.6599 3.508 40.7719 3.368 40.8919 3.24C41.0119 3.112 41.1439 3.004 41.2879 2.916C41.4399 2.828 41.6119 2.76 41.8039 2.712C41.9959 2.656 42.2159 2.628 42.4639 2.628C42.8399 2.628 43.1879 2.712 43.5079 2.88C43.8359 3.048 44.0679 3.308 44.2039 3.66C44.4359 3.34 44.7039 3.088 45.0079 2.904C45.3119 2.72 45.6919 2.628 46.1479 2.628C46.8039 2.628 47.3119 2.788 47.6719 3.108C48.0399 3.428 48.2239 3.964 48.2239 4.716V9H46.8559V5.376C46.8559 5.128 46.8479 4.904 46.8319 4.704C46.8159 4.496 46.7679 4.32 46.6879 4.176C46.6159 4.024 46.5039 3.908 46.3519 3.828C46.1999 3.748 45.9919 3.708 45.7279 3.708C45.2639 3.708 44.9279 3.852 44.7199 4.14C44.5119 4.428 44.4079 4.836 44.4079 5.364V9H43.0399V5.016C43.0399 4.584 42.9599 4.26 42.7999 4.044C42.6479 3.82 42.3639 3.708 41.9479 3.708C41.7719 3.708 41.5999 3.744 41.4319 3.816C41.2719 3.888 41.1279 3.992 40.9999 4.128C40.8799 4.264 40.7799 4.432 40.6999 4.632C40.6279 4.832 40.5919 5.06 40.5919 5.316V9H39.2239V2.796ZM49.7013 0.431999H51.0693V1.728H49.7013V0.431999ZM49.7013 2.796H51.0693V9H49.7013V2.796ZM58.0078 9H56.6638V8.136H56.6398C56.4718 8.448 56.2198 8.7 55.8838 8.892C55.5558 9.076 55.2198 9.168 54.8758 9.168C54.0598 9.168 53.4678 8.968 53.0998 8.568C52.7398 8.16 52.5598 7.548 52.5598 6.732V2.796H53.9278V6.6C53.9278 7.144 54.0318 7.528 54.2398 7.752C54.4478 7.976 54.7398 8.088 55.1158 8.088C55.4038 8.088 55.6438 8.044 55.8358 7.956C56.0278 7.868 56.1838 7.752 56.3038 7.608C56.4238 7.456 56.5078 7.276 56.5558 7.068C56.6118 6.86 56.6398 6.636 56.6398 6.396V2.796H58.0078V9ZM59.4505 2.796H60.7465V3.66H60.7825C60.8865 3.508 60.9985 3.368 61.1185 3.24C61.2385 3.112 61.3705 3.004 61.5145 2.916C61.6665 2.828 61.8385 2.76 62.0305 2.712C62.2225 2.656 62.4425 2.628 62.6905 2.628C63.0665 2.628 63.4145 2.712 63.7345 2.88C64.0625 3.048 64.2945 3.308 64.4305 3.66C64.6625 3.34 64.9305 3.088 65.2345 2.904C65.5385 2.72 65.9185 2.628 66.3745 2.628C67.0305 2.628 67.5385 2.788 67.8985 3.108C68.2665 3.428 68.4505 3.964 68.4505 4.716V9H67.0825V5.376C67.0825 5.128 67.0745 4.904 67.0585 4.704C67.0425 4.496 66.9945 4.32 66.9145 4.176C66.8425 4.024 66.7305 3.908 66.5785 3.828C66.4265 3.748 66.2185 3.708 65.9545 3.708C65.4905 3.708 65.1545 3.852 64.9465 4.14C64.7385 4.428 64.6345 4.836 64.6345 5.364V9H63.2665V5.016C63.2665 4.584 63.1865 4.26 63.0265 4.044C62.8745 3.82 62.5905 3.708 62.1745 3.708C61.9985 3.708 61.8265 3.744 61.6585 3.816C61.4985 3.888 61.3545 3.992 61.2265 4.128C61.1065 4.264 61.0065 4.432 60.9265 4.632C60.8545 4.832 60.8185 5.06 60.8185 5.316V9H59.4505V2.796ZM73.4237 0.431999H79.3397V1.728H74.9237V3.972H78.7997V5.196H74.9237V9H73.4237V0.431999ZM80.345 2.796H81.629V3.996H81.653C81.693 3.828 81.769 3.664 81.881 3.504C82.001 3.344 82.141 3.2 82.301 3.072C82.469 2.936 82.653 2.828 82.853 2.748C83.053 2.668 83.257 2.628 83.465 2.628C83.625 2.628 83.733 2.632 83.789 2.64C83.853 2.648 83.917 2.656 83.981 2.664V3.984C83.885 3.968 83.785 3.956 83.681 3.948C83.585 3.932 83.489 3.924 83.393 3.924C83.161 3.924 82.941 3.972 82.733 4.068C82.533 4.156 82.357 4.292 82.205 4.476C82.053 4.652 81.933 4.872 81.845 5.136C81.757 5.4 81.713 5.704 81.713 6.048V9H80.345V2.796ZM88.6128 5.352C88.5968 5.136 88.5488 4.928 88.4688 4.728C88.3968 4.528 88.2928 4.356 88.1568 4.212C88.0288 4.06 87.8688 3.94 87.6768 3.852C87.4928 3.756 87.2848 3.708 87.0528 3.708C86.8128 3.708 86.5928 3.752 86.3928 3.84C86.2008 3.92 86.0328 4.036 85.8888 4.188C85.7528 4.332 85.6408 4.504 85.5528 4.704C85.4728 4.904 85.4288 5.12 85.4208 5.352H88.6128ZM85.4208 6.252C85.4208 6.492 85.4528 6.724 85.5168 6.948C85.5888 7.172 85.6928 7.368 85.8288 7.536C85.9648 7.704 86.1368 7.84 86.3448 7.944C86.5528 8.04 86.8008 8.088 87.0888 8.088C87.4888 8.088 87.8088 8.004 88.0488 7.836C88.2968 7.66 88.4808 7.4 88.6008 7.056H89.8968C89.8248 7.392 89.7008 7.692 89.5248 7.956C89.3488 8.22 89.1368 8.444 88.8888 8.628C88.6408 8.804 88.3608 8.936 88.0488 9.024C87.7448 9.12 87.4248 9.168 87.0888 9.168C86.6008 9.168 86.1688 9.088 85.7928 8.928C85.4168 8.768 85.0968 8.544 84.8328 8.256C84.5768 7.968 84.3808 7.624 84.2448 7.224C84.1168 6.824 84.0528 6.384 84.0528 5.904C84.0528 5.464 84.1208 5.048 84.2568 4.656C84.4008 4.256 84.6008 3.908 84.8568 3.612C85.1208 3.308 85.4368 3.068 85.8048 2.892C86.1728 2.716 86.5888 2.628 87.0528 2.628C87.5408 2.628 87.9768 2.732 88.3608 2.94C88.7528 3.14 89.0768 3.408 89.3328 3.744C89.5888 4.08 89.7728 4.468 89.8848 4.908C90.0048 5.34 90.0368 5.788 89.9808 6.252H85.4208ZM95.2808 5.352C95.2648 5.136 95.2168 4.928 95.1368 4.728C95.0648 4.528 94.9608 4.356 94.8248 4.212C94.6968 4.06 94.5368 3.94 94.3448 3.852C94.1608 3.756 93.9528 3.708 93.7208 3.708C93.4808 3.708 93.2608 3.752 93.0608 3.84C92.8688 3.92 92.7008 4.036 92.5568 4.188C92.4208 4.332 92.3088 4.504 92.2208 4.704C92.1408 4.904 92.0968 5.12 92.0888 5.352H95.2808ZM92.0888 6.252C92.0888 6.492 92.1208 6.724 92.1848 6.948C92.2568 7.172 92.3608 7.368 92.4968 7.536C92.6328 7.704 92.8048 7.84 93.0128 7.944C93.2208 8.04 93.4688 8.088 93.7568 8.088C94.1568 8.088 94.4768 8.004 94.7168 7.836C94.9648 7.66 95.1488 7.4 95.2688 7.056H96.5648C96.4928 7.392 96.3688 7.692 96.1928 7.956C96.0168 8.22 95.8048 8.444 95.5568 8.628C95.3088 8.804 95.0288 8.936 94.7168 9.024C94.4128 9.12 94.0928 9.168 93.7568 9.168C93.2688 9.168 92.8368 9.088 92.4608 8.928C92.0848 8.768 91.7648 8.544 91.5008 8.256C91.2448 7.968 91.0488 7.624 90.9128 7.224C90.7848 6.824 90.7208 6.384 90.7208 5.904C90.7208 5.464 90.7888 5.048 90.9248 4.656C91.0688 4.256 91.2688 3.908 91.5248 3.612C91.7888 3.308 92.1048 3.068 92.4728 2.892C92.8408 2.716 93.2568 2.628 93.7208 2.628C94.2088 2.628 94.6448 2.732 95.0288 2.94C95.4208 3.14 95.7448 3.408 96.0008 3.744C96.2568 4.08 96.4408 4.468 96.5528 4.908C96.6728 5.34 96.7048 5.788 96.6488 6.252H92.0888ZM16.5982 17.796H17.6182V17.28C17.6182 16.888 17.6662 16.572 17.7622 16.332C17.8582 16.084 17.9862 15.896 18.1462 15.768C18.3062 15.632 18.4862 15.544 18.6862 15.504C18.8942 15.456 19.1102 15.432 19.3342 15.432C19.7742 15.432 20.0942 15.46 20.2942 15.516V16.584C20.2062 16.56 20.1102 16.544 20.0062 16.536C19.9102 16.52 19.7942 16.512 19.6582 16.512C19.4742 16.512 19.3142 16.556 19.1782 16.644C19.0502 16.732 18.9862 16.904 18.9862 17.16V17.796H20.1502V18.816H18.9862V24H17.6182V18.816H16.5982V17.796ZM23.8394 24.168C23.3434 24.168 22.8994 24.088 22.5074 23.928C22.1234 23.76 21.7954 23.532 21.5234 23.244C21.2594 22.956 21.0554 22.612 20.9114 22.212C20.7754 21.812 20.7074 21.372 20.7074 20.892C20.7074 20.42 20.7754 19.984 20.9114 19.584C21.0554 19.184 21.2594 18.84 21.5234 18.552C21.7954 18.264 22.1234 18.04 22.5074 17.88C22.8994 17.712 23.3434 17.628 23.8394 17.628C24.3354 17.628 24.7754 17.712 25.1594 17.88C25.5514 18.04 25.8794 18.264 26.1434 18.552C26.4154 18.84 26.6194 19.184 26.7554 19.584C26.8994 19.984 26.9714 20.42 26.9714 20.892C26.9714 21.372 26.8994 21.812 26.7554 22.212C26.6194 22.612 26.4154 22.956 26.1434 23.244C25.8794 23.532 25.5514 23.76 25.1594 23.928C24.7754 24.088 24.3354 24.168 23.8394 24.168ZM23.8394 23.088C24.1434 23.088 24.4074 23.024 24.6314 22.896C24.8554 22.768 25.0394 22.6 25.1834 22.392C25.3274 22.184 25.4314 21.952 25.4954 21.696C25.5674 21.432 25.6034 21.164 25.6034 20.892C25.6034 20.628 25.5674 20.364 25.4954 20.1C25.4314 19.836 25.3274 19.604 25.1834 19.404C25.0394 19.196 24.8554 19.028 24.6314 18.9C24.4074 18.772 24.1434 18.708 23.8394 18.708C23.5354 18.708 23.2714 18.772 23.0474 18.9C22.8234 19.028 22.6394 19.196 22.4954 19.404C22.3514 19.604 22.2434 19.836 22.1714 20.1C22.1074 20.364 22.0754 20.628 22.0754 20.892C22.0754 21.164 22.1074 21.432 22.1714 21.696C22.2434 21.952 22.3514 22.184 22.4954 22.392C22.6394 22.6 22.8234 22.768 23.0474 22.896C23.2714 23.024 23.5354 23.088 23.8394 23.088ZM28.1087 17.796H29.3927V18.996H29.4167C29.4567 18.828 29.5327 18.664 29.6447 18.504C29.7647 18.344 29.9047 18.2 30.0647 18.072C30.2327 17.936 30.4167 17.828 30.6167 17.748C30.8167 17.668 31.0207 17.628 31.2287 17.628C31.3887 17.628 31.4967 17.632 31.5527 17.64C31.6167 17.648 31.6807 17.656 31.7447 17.664V18.984C31.6487 18.968 31.5487 18.956 31.4447 18.948C31.3487 18.932 31.2527 18.924 31.1567 18.924C30.9247 18.924 30.7047 18.972 30.4967 19.068C30.2967 19.156 30.1207 19.292 29.9687 19.476C29.8167 19.652 29.6967 19.872 29.6087 20.136C29.5207 20.4 29.4767 20.704 29.4767 21.048V24H28.1087V17.796ZM35.5833 16.992C35.8713 16.992 36.1513 16.968 36.4233 16.92C36.6953 16.872 36.9393 16.792 37.1553 16.68C37.3793 16.568 37.5673 16.424 37.7193 16.248C37.8793 16.072 37.9833 15.856 38.0313 15.6H39.1473V24H37.6473V18.072H35.5833V16.992ZM45.8431 15.432H47.9551L50.3191 22.14H50.3431L52.6471 15.432H54.7351V24H53.3071V17.388H53.2831L50.9071 24H49.6711L47.2951 17.388H47.2711V24H45.8431V15.432ZM59.1831 24.168C58.6871 24.168 58.2431 24.088 57.8511 23.928C57.4671 23.76 57.1391 23.532 56.8671 23.244C56.6031 22.956 56.3991 22.612 56.2551 22.212C56.1191 21.812 56.0511 21.372 56.0511 20.892C56.0511 20.42 56.1191 19.984 56.2551 19.584C56.3991 19.184 56.6031 18.84 56.8671 18.552C57.1391 18.264 57.4671 18.04 57.8511 17.88C58.2431 17.712 58.6871 17.628 59.1831 17.628C59.6791 17.628 60.1191 17.712 60.5031 17.88C60.8951 18.04 61.2231 18.264 61.4871 18.552C61.7591 18.84 61.9631 19.184 62.0991 19.584C62.2431 19.984 62.3151 20.42 62.3151 20.892C62.3151 21.372 62.2431 21.812 62.0991 22.212C61.9631 22.612 61.7591 22.956 61.4871 23.244C61.2231 23.532 60.8951 23.76 60.5031 23.928C60.1191 24.088 59.6791 24.168 59.1831 24.168ZM59.1831 23.088C59.4871 23.088 59.7511 23.024 59.9751 22.896C60.1991 22.768 60.3831 22.6 60.5271 22.392C60.6711 22.184 60.7751 21.952 60.8391 21.696C60.9111 21.432 60.9471 21.164 60.9471 20.892C60.9471 20.628 60.9111 20.364 60.8391 20.1C60.7751 19.836 60.6711 19.604 60.5271 19.404C60.3831 19.196 60.1991 19.028 59.9751 18.9C59.7511 18.772 59.4871 18.708 59.1831 18.708C58.8791 18.708 58.6151 18.772 58.3911 18.9C58.1671 19.028 57.9831 19.196 57.8391 19.404C57.6951 19.604 57.5871 19.836 57.5151 20.1C57.4511 20.364 57.4191 20.628 57.4191 20.892C57.4191 21.164 57.4511 21.432 57.5151 21.696C57.5871 21.952 57.6951 22.184 57.8391 22.392C57.9831 22.6 58.1671 22.768 58.3911 22.896C58.6151 23.024 58.8791 23.088 59.1831 23.088ZM63.4524 17.796H64.7484V18.708L64.7724 18.732C64.9804 18.388 65.2524 18.12 65.5884 17.928C65.9244 17.728 66.2964 17.628 66.7044 17.628C67.3844 17.628 67.9204 17.804 68.3124 18.156C68.7044 18.508 68.9004 19.036 68.9004 19.74V24H67.5324V20.1C67.5164 19.612 67.4124 19.26 67.2204 19.044C67.0284 18.82 66.7284 18.708 66.3204 18.708C66.0884 18.708 65.8804 18.752 65.6964 18.84C65.5124 18.92 65.3564 19.036 65.2284 19.188C65.1004 19.332 65.0004 19.504 64.9284 19.704C64.8564 19.904 64.8204 20.116 64.8204 20.34V24H63.4524V17.796ZM69.719 17.796H70.751V15.936H72.119V17.796H73.355V18.816H72.119V22.128C72.119 22.272 72.123 22.396 72.131 22.5C72.147 22.604 72.175 22.692 72.215 22.764C72.263 22.836 72.331 22.892 72.419 22.932C72.507 22.964 72.627 22.98 72.779 22.98C72.875 22.98 72.971 22.98 73.067 22.98C73.163 22.972 73.259 22.956 73.355 22.932V23.988C73.203 24.004 73.055 24.02 72.911 24.036C72.767 24.052 72.619 24.06 72.467 24.06C72.107 24.06 71.815 24.028 71.591 23.964C71.375 23.892 71.203 23.792 71.075 23.664C70.955 23.528 70.871 23.36 70.823 23.16C70.783 22.96 70.759 22.732 70.751 22.476V18.816H69.719V17.796ZM74.3391 15.432H75.7071V18.612H75.7311C75.8991 18.332 76.1471 18.1 76.4751 17.916C76.8111 17.724 77.1831 17.628 77.5911 17.628C78.2711 17.628 78.8071 17.804 79.1991 18.156C79.5911 18.508 79.7871 19.036 79.7871 19.74V24H78.4191V20.1C78.4031 19.612 78.2991 19.26 78.1071 19.044C77.9151 18.82 77.6151 18.708 77.2071 18.708C76.9751 18.708 76.7671 18.752 76.5831 18.84C76.3991 18.92 76.2431 19.036 76.1151 19.188C75.9871 19.332 75.8871 19.504 75.8151 19.704C75.7431 19.904 75.7071 20.116 75.7071 20.34V24H74.3391V15.432Z" fill="#D8CDA8"/>
</svg>
