<svg width="28" height="10" viewBox="0 0 28 10" fill="none" xmlns="http://www.w3.org/2000/svg">
<path d="M8.90647 9L11.1985 0.431999H10.0585L8.31847 7.56H8.29447L6.39847 0.431999H5.16247L3.24247 7.56H3.21847L1.53847 0.431999H0.374469L2.57047 9H3.75847L5.73847 1.8H5.76247L7.71847 9H8.90647ZM12.1722 5.904C12.1722 5.528 12.2202 5.196 12.3162 4.908C12.4202 4.612 12.5602 4.364 12.7362 4.164C12.9122 3.964 13.1162 3.812 13.3482 3.708C13.5882 3.604 13.8402 3.552 14.1042 3.552C14.3682 3.552 14.6162 3.604 14.8482 3.708C15.0882 3.812 15.2962 3.964 15.4722 4.164C15.6482 4.364 15.7842 4.612 15.8802 4.908C15.9842 5.196 16.0362 5.528 16.0362 5.904C16.0362 6.28 15.9842 6.616 15.8802 6.912C15.7842 7.2 15.6482 7.444 15.4722 7.644C15.2962 7.836 15.0882 7.984 14.8482 8.088C14.6162 8.192 14.3682 8.244 14.1042 8.244C13.8402 8.244 13.5882 8.192 13.3482 8.088C13.1162 7.984 12.9122 7.836 12.7362 7.644C12.5602 7.444 12.4202 7.2 12.3162 6.912C12.2202 6.616 12.1722 6.28 12.1722 5.904ZM11.0922 5.904C11.0922 6.36 11.1562 6.784 11.2842 7.176C11.4122 7.568 11.6042 7.912 11.8602 8.208C12.1162 8.496 12.4322 8.724 12.8082 8.892C13.1842 9.052 13.6162 9.132 14.1042 9.132C14.6002 9.132 15.0322 9.052 15.4002 8.892C15.7762 8.724 16.0922 8.496 16.3482 8.208C16.6042 7.912 16.7962 7.568 16.9242 7.176C17.0522 6.784 17.1162 6.36 17.1162 5.904C17.1162 5.448 17.0522 5.024 16.9242 4.632C16.7962 4.232 16.6042 3.888 16.3482 3.6C16.0922 3.304 15.7762 3.072 15.4002 2.904C15.0322 2.736 14.6002 2.652 14.1042 2.652C13.6162 2.652 13.1842 2.736 12.8082 2.904C12.4322 3.072 12.1162 3.304 11.8602 3.6C11.6042 3.888 11.4122 4.232 11.2842 4.632C11.1562 5.024 11.0922 5.448 11.0922 5.904ZM18.2828 2.796V9H19.3028V6.24C19.3028 5.84 19.3428 5.488 19.4228 5.184C19.5028 4.872 19.6308 4.608 19.8068 4.392C19.9828 4.176 20.2148 4.012 20.5028 3.9C20.7908 3.788 21.1388 3.732 21.5468 3.732V2.652C20.9948 2.636 20.5388 2.748 20.1788 2.988C19.8188 3.228 19.5148 3.6 19.2668 4.104H19.2428V2.796H18.2828ZM22.3749 0.431999V9H23.3949V6.648L24.3549 5.76L26.4789 9H27.7749L25.1349 5.052L27.5949 2.796H26.2269L23.3949 5.508V0.431999H22.3749Z" fill="#C9D1D7"/>
</svg>
